<?xml version="1.0" encoding="utf-8" standalone="no"?>
<!DOCTYPE svg PUBLIC "-//W3C//DTD SVG 1.1//EN"
  "http://www.w3.org/Graphics/SVG/1.1/DTD/svg11.dtd">
<svg xmlns:xlink="http://www.w3.org/1999/xlink" width="460.8pt" height="345.6pt" viewBox="0 0 460.8 345.6" xmlns="http://www.w3.org/2000/svg" version="1.1">
 <metadata>
  <rdf:RDF xmlns:dc="http://purl.org/dc/elements/1.1/" xmlns:cc="http://creativecommons.org/ns#" xmlns:rdf="http://www.w3.org/1999/02/22-rdf-syntax-ns#">
   <cc:Work>
    <dc:type rdf:resource="http://purl.org/dc/dcmitype/StillImage"/>
    <dc:date>2025-12-21T23:44:39.711982</dc:date>
    <dc:format>image/svg+xml</dc:format>
    <dc:creator>
     <cc:Agent>
      <dc:title>Matplotlib v3.10.7, https://matplotlib.org/</dc:title>
     </cc:Agent>
    </dc:creator>
   </cc:Work>
  </rdf:RDF>
 </metadata>
 <defs>
  <style type="text/css">*{stroke-linejoin: round; stroke-linecap: butt}</style>
 </defs>
 <g id="figure_1">
  <g id="patch_1">
   <path d="M 0 345.6 
L 460.8 345.6 
L 460.8 0 
L 0 0 
z
" style="fill: #ffffff"/>
  </g>
  <g id="axes_1">
   <g id="patch_2">
    <path d="M 57.6 307.584 
L 414.72 307.584 
L 414.72 41.472 
L 57.6 41.472 
z
" style="fill: #ffffff"/>
   </g>
   <g id="matplotlib.axis_1">
    <g id="xtick_1">
     <g id="line2d_1">
      <path d="M 100.887273 307.584 
L 100.887273 41.472 
" clip-path="url(#p21f23e25e7)" style="fill: none; stroke: #b0b0b0; stroke-width: 0.8; stroke-linecap: square"/>
     </g>
     <g id="line2d_2">
      <defs>
       <path id="mc83a96eb82" d="M 0 0 
L 0 3.5 
" style="stroke: #000000; stroke-width: 0.8"/>
      </defs>
      <g>
       <use xlink:href="#mc83a96eb82" x="100.887273" y="307.584" style="stroke: #000000; stroke-width: 0.8"/>
      </g>
     </g>
     <g id="text_1">
      <!-- 3.8 -->
      <g transform="translate(92.93571 322.182437) scale(0.1 -0.1)">
       <defs>
        <path id="DejaVuSans-33" d="M 2597 2516 
Q 3050 2419 3304 2112 
Q 3559 1806 3559 1356 
Q 3559 666 3084 287 
Q 2609 -91 1734 -91 
Q 1441 -91 1130 -33 
Q 819 25 488 141 
L 488 750 
Q 750 597 1062 519 
Q 1375 441 1716 441 
Q 2309 441 2620 675 
Q 2931 909 2931 1356 
Q 2931 1769 2642 2001 
Q 2353 2234 1838 2234 
L 1294 2234 
L 1294 2753 
L 1863 2753 
Q 2328 2753 2575 2939 
Q 2822 3125 2822 3475 
Q 2822 3834 2567 4026 
Q 2313 4219 1838 4219 
Q 1578 4219 1281 4162 
Q 984 4106 628 3988 
L 628 4550 
Q 988 4650 1302 4700 
Q 1616 4750 1894 4750 
Q 2613 4750 3031 4423 
Q 3450 4097 3450 3541 
Q 3450 3153 3228 2886 
Q 3006 2619 2597 2516 
z
" transform="scale(0.015625)"/>
        <path id="DejaVuSans-2e" d="M 684 794 
L 1344 794 
L 1344 0 
L 684 0 
L 684 794 
z
" transform="scale(0.015625)"/>
        <path id="DejaVuSans-38" d="M 2034 2216 
Q 1584 2216 1326 1975 
Q 1069 1734 1069 1313 
Q 1069 891 1326 650 
Q 1584 409 2034 409 
Q 2484 409 2743 651 
Q 3003 894 3003 1313 
Q 3003 1734 2745 1975 
Q 2488 2216 2034 2216 
z
M 1403 2484 
Q 997 2584 770 2862 
Q 544 3141 544 3541 
Q 544 4100 942 4425 
Q 1341 4750 2034 4750 
Q 2731 4750 3128 4425 
Q 3525 4100 3525 3541 
Q 3525 3141 3298 2862 
Q 3072 2584 2669 2484 
Q 3125 2378 3379 2068 
Q 3634 1759 3634 1313 
Q 3634 634 3220 271 
Q 2806 -91 2034 -91 
Q 1263 -91 848 271 
Q 434 634 434 1313 
Q 434 1759 690 2068 
Q 947 2378 1403 2484 
z
M 1172 3481 
Q 1172 3119 1398 2916 
Q 1625 2713 2034 2713 
Q 2441 2713 2670 2916 
Q 2900 3119 2900 3481 
Q 2900 3844 2670 4047 
Q 2441 4250 2034 4250 
Q 1625 4250 1398 4047 
Q 1172 3844 1172 3481 
z
" transform="scale(0.015625)"/>
       </defs>
       <use xlink:href="#DejaVuSans-33"/>
       <use xlink:href="#DejaVuSans-2e" transform="translate(63.623047 0)"/>
       <use xlink:href="#DejaVuSans-38" transform="translate(95.410156 0)"/>
      </g>
     </g>
    </g>
    <g id="xtick_2">
     <g id="line2d_3">
      <path d="M 150.077355 307.584 
L 150.077355 41.472 
" clip-path="url(#p21f23e25e7)" style="fill: none; stroke: #b0b0b0; stroke-width: 0.8; stroke-linecap: square"/>
     </g>
     <g id="line2d_4">
      <g>
       <use xlink:href="#mc83a96eb82" x="150.077355" y="307.584" style="stroke: #000000; stroke-width: 0.8"/>
      </g>
     </g>
     <g id="text_2">
      <!-- 4.0 -->
      <g transform="translate(142.125793 322.182437) scale(0.1 -0.1)">
       <defs>
        <path id="DejaVuSans-34" d="M 2419 4116 
L 825 1625 
L 2419 1625 
L 2419 4116 
z
M 2253 4666 
L 3047 4666 
L 3047 1625 
L 3713 1625 
L 3713 1100 
L 3047 1100 
L 3047 0 
L 2419 0 
L 2419 1100 
L 313 1100 
L 313 1709 
L 2253 4666 
z
" transform="scale(0.015625)"/>
        <path id="DejaVuSans-30" d="M 2034 4250 
Q 1547 4250 1301 3770 
Q 1056 3291 1056 2328 
Q 1056 1369 1301 889 
Q 1547 409 2034 409 
Q 2525 409 2770 889 
Q 3016 1369 3016 2328 
Q 3016 3291 2770 3770 
Q 2525 4250 2034 4250 
z
M 2034 4750 
Q 2819 4750 3233 4129 
Q 3647 3509 3647 2328 
Q 3647 1150 3233 529 
Q 2819 -91 2034 -91 
Q 1250 -91 836 529 
Q 422 1150 422 2328 
Q 422 3509 836 4129 
Q 1250 4750 2034 4750 
z
" transform="scale(0.015625)"/>
       </defs>
       <use xlink:href="#DejaVuSans-34"/>
       <use xlink:href="#DejaVuSans-2e" transform="translate(63.623047 0)"/>
       <use xlink:href="#DejaVuSans-30" transform="translate(95.410156 0)"/>
      </g>
     </g>
    </g>
    <g id="xtick_3">
     <g id="line2d_5">
      <path d="M 199.267438 307.584 
L 199.267438 41.472 
" clip-path="url(#p21f23e25e7)" style="fill: none; stroke: #b0b0b0; stroke-width: 0.8; stroke-linecap: square"/>
     </g>
     <g id="line2d_6">
      <g>
       <use xlink:href="#mc83a96eb82" x="199.267438" y="307.584" style="stroke: #000000; stroke-width: 0.8"/>
      </g>
     </g>
     <g id="text_3">
      <!-- 4.2 -->
      <g transform="translate(191.315876 322.182437) scale(0.1 -0.1)">
       <defs>
        <path id="DejaVuSans-32" d="M 1228 531 
L 3431 531 
L 3431 0 
L 469 0 
L 469 531 
Q 828 903 1448 1529 
Q 2069 2156 2228 2338 
Q 2531 2678 2651 2914 
Q 2772 3150 2772 3378 
Q 2772 3750 2511 3984 
Q 2250 4219 1831 4219 
Q 1534 4219 1204 4116 
Q 875 4013 500 3803 
L 500 4441 
Q 881 4594 1212 4672 
Q 1544 4750 1819 4750 
Q 2544 4750 2975 4387 
Q 3406 4025 3406 3419 
Q 3406 3131 3298 2873 
Q 3191 2616 2906 2266 
Q 2828 2175 2409 1742 
Q 1991 1309 1228 531 
z
" transform="scale(0.015625)"/>
       </defs>
       <use xlink:href="#DejaVuSans-34"/>
       <use xlink:href="#DejaVuSans-2e" transform="translate(63.623047 0)"/>
       <use xlink:href="#DejaVuSans-32" transform="translate(95.410156 0)"/>
      </g>
     </g>
    </g>
    <g id="xtick_4">
     <g id="line2d_7">
      <path d="M 248.457521 307.584 
L 248.457521 41.472 
" clip-path="url(#p21f23e25e7)" style="fill: none; stroke: #b0b0b0; stroke-width: 0.8; stroke-linecap: square"/>
     </g>
     <g id="line2d_8">
      <g>
       <use xlink:href="#mc83a96eb82" x="248.457521" y="307.584" style="stroke: #000000; stroke-width: 0.8"/>
      </g>
     </g>
     <g id="text_4">
      <!-- 4.4 -->
      <g transform="translate(240.505958 322.182437) scale(0.1 -0.1)">
       <use xlink:href="#DejaVuSans-34"/>
       <use xlink:href="#DejaVuSans-2e" transform="translate(63.623047 0)"/>
       <use xlink:href="#DejaVuSans-34" transform="translate(95.410156 0)"/>
      </g>
     </g>
    </g>
    <g id="xtick_5">
     <g id="line2d_9">
      <path d="M 297.647603 307.584 
L 297.647603 41.472 
" clip-path="url(#p21f23e25e7)" style="fill: none; stroke: #b0b0b0; stroke-width: 0.8; stroke-linecap: square"/>
     </g>
     <g id="line2d_10">
      <g>
       <use xlink:href="#mc83a96eb82" x="297.647603" y="307.584" style="stroke: #000000; stroke-width: 0.8"/>
      </g>
     </g>
     <g id="text_5">
      <!-- 4.6 -->
      <g transform="translate(289.696041 322.182437) scale(0.1 -0.1)">
       <defs>
        <path id="DejaVuSans-36" d="M 2113 2584 
Q 1688 2584 1439 2293 
Q 1191 2003 1191 1497 
Q 1191 994 1439 701 
Q 1688 409 2113 409 
Q 2538 409 2786 701 
Q 3034 994 3034 1497 
Q 3034 2003 2786 2293 
Q 2538 2584 2113 2584 
z
M 3366 4563 
L 3366 3988 
Q 3128 4100 2886 4159 
Q 2644 4219 2406 4219 
Q 1781 4219 1451 3797 
Q 1122 3375 1075 2522 
Q 1259 2794 1537 2939 
Q 1816 3084 2150 3084 
Q 2853 3084 3261 2657 
Q 3669 2231 3669 1497 
Q 3669 778 3244 343 
Q 2819 -91 2113 -91 
Q 1303 -91 875 529 
Q 447 1150 447 2328 
Q 447 3434 972 4092 
Q 1497 4750 2381 4750 
Q 2619 4750 2861 4703 
Q 3103 4656 3366 4563 
z
" transform="scale(0.015625)"/>
       </defs>
       <use xlink:href="#DejaVuSans-34"/>
       <use xlink:href="#DejaVuSans-2e" transform="translate(63.623047 0)"/>
       <use xlink:href="#DejaVuSans-36" transform="translate(95.410156 0)"/>
      </g>
     </g>
    </g>
    <g id="xtick_6">
     <g id="line2d_11">
      <path d="M 346.837686 307.584 
L 346.837686 41.472 
" clip-path="url(#p21f23e25e7)" style="fill: none; stroke: #b0b0b0; stroke-width: 0.8; stroke-linecap: square"/>
     </g>
     <g id="line2d_12">
      <g>
       <use xlink:href="#mc83a96eb82" x="346.837686" y="307.584" style="stroke: #000000; stroke-width: 0.8"/>
      </g>
     </g>
     <g id="text_6">
      <!-- 4.8 -->
      <g transform="translate(338.886123 322.182437) scale(0.1 -0.1)">
       <use xlink:href="#DejaVuSans-34"/>
       <use xlink:href="#DejaVuSans-2e" transform="translate(63.623047 0)"/>
       <use xlink:href="#DejaVuSans-38" transform="translate(95.410156 0)"/>
      </g>
     </g>
    </g>
    <g id="xtick_7">
     <g id="line2d_13">
      <path d="M 396.027769 307.584 
L 396.027769 41.472 
" clip-path="url(#p21f23e25e7)" style="fill: none; stroke: #b0b0b0; stroke-width: 0.8; stroke-linecap: square"/>
     </g>
     <g id="line2d_14">
      <g>
       <use xlink:href="#mc83a96eb82" x="396.027769" y="307.584" style="stroke: #000000; stroke-width: 0.8"/>
      </g>
     </g>
     <g id="text_7">
      <!-- 5.0 -->
      <g transform="translate(388.076206 322.182437) scale(0.1 -0.1)">
       <defs>
        <path id="DejaVuSans-35" d="M 691 4666 
L 3169 4666 
L 3169 4134 
L 1269 4134 
L 1269 2991 
Q 1406 3038 1543 3061 
Q 1681 3084 1819 3084 
Q 2600 3084 3056 2656 
Q 3513 2228 3513 1497 
Q 3513 744 3044 326 
Q 2575 -91 1722 -91 
Q 1428 -91 1123 -41 
Q 819 9 494 109 
L 494 744 
Q 775 591 1075 516 
Q 1375 441 1709 441 
Q 2250 441 2565 725 
Q 2881 1009 2881 1497 
Q 2881 1984 2565 2268 
Q 2250 2553 1709 2553 
Q 1456 2553 1204 2497 
Q 953 2441 691 2322 
L 691 4666 
z
" transform="scale(0.015625)"/>
       </defs>
       <use xlink:href="#DejaVuSans-35"/>
       <use xlink:href="#DejaVuSans-2e" transform="translate(63.623047 0)"/>
       <use xlink:href="#DejaVuSans-30" transform="translate(95.410156 0)"/>
      </g>
     </g>
    </g>
    <g id="text_8">
     <!-- Frequency [kHz] -->
     <g transform="translate(195.56 335.860562) scale(0.1 -0.1)">
      <defs>
       <path id="DejaVuSans-46" d="M 628 4666 
L 3309 4666 
L 3309 4134 
L 1259 4134 
L 1259 2759 
L 3109 2759 
L 3109 2228 
L 1259 2228 
L 1259 0 
L 628 0 
L 628 4666 
z
" transform="scale(0.015625)"/>
       <path id="DejaVuSans-72" d="M 2631 2963 
Q 2534 3019 2420 3045 
Q 2306 3072 2169 3072 
Q 1681 3072 1420 2755 
Q 1159 2438 1159 1844 
L 1159 0 
L 581 0 
L 581 3500 
L 1159 3500 
L 1159 2956 
Q 1341 3275 1631 3429 
Q 1922 3584 2338 3584 
Q 2397 3584 2469 3576 
Q 2541 3569 2628 3553 
L 2631 2963 
z
" transform="scale(0.015625)"/>
       <path id="DejaVuSans-65" d="M 3597 1894 
L 3597 1613 
L 953 1613 
Q 991 1019 1311 708 
Q 1631 397 2203 397 
Q 2534 397 2845 478 
Q 3156 559 3463 722 
L 3463 178 
Q 3153 47 2828 -22 
Q 2503 -91 2169 -91 
Q 1331 -91 842 396 
Q 353 884 353 1716 
Q 353 2575 817 3079 
Q 1281 3584 2069 3584 
Q 2775 3584 3186 3129 
Q 3597 2675 3597 1894 
z
M 3022 2063 
Q 3016 2534 2758 2815 
Q 2500 3097 2075 3097 
Q 1594 3097 1305 2825 
Q 1016 2553 972 2059 
L 3022 2063 
z
" transform="scale(0.015625)"/>
       <path id="DejaVuSans-71" d="M 947 1747 
Q 947 1113 1208 752 
Q 1469 391 1925 391 
Q 2381 391 2643 752 
Q 2906 1113 2906 1747 
Q 2906 2381 2643 2742 
Q 2381 3103 1925 3103 
Q 1469 3103 1208 2742 
Q 947 2381 947 1747 
z
M 2906 525 
Q 2725 213 2448 61 
Q 2172 -91 1784 -91 
Q 1150 -91 751 415 
Q 353 922 353 1747 
Q 353 2572 751 3078 
Q 1150 3584 1784 3584 
Q 2172 3584 2448 3432 
Q 2725 3281 2906 2969 
L 2906 3500 
L 3481 3500 
L 3481 -1331 
L 2906 -1331 
L 2906 525 
z
" transform="scale(0.015625)"/>
       <path id="DejaVuSans-75" d="M 544 1381 
L 544 3500 
L 1119 3500 
L 1119 1403 
Q 1119 906 1312 657 
Q 1506 409 1894 409 
Q 2359 409 2629 706 
Q 2900 1003 2900 1516 
L 2900 3500 
L 3475 3500 
L 3475 0 
L 2900 0 
L 2900 538 
Q 2691 219 2414 64 
Q 2138 -91 1772 -91 
Q 1169 -91 856 284 
Q 544 659 544 1381 
z
M 1991 3584 
L 1991 3584 
z
" transform="scale(0.015625)"/>
       <path id="DejaVuSans-6e" d="M 3513 2113 
L 3513 0 
L 2938 0 
L 2938 2094 
Q 2938 2591 2744 2837 
Q 2550 3084 2163 3084 
Q 1697 3084 1428 2787 
Q 1159 2491 1159 1978 
L 1159 0 
L 581 0 
L 581 3500 
L 1159 3500 
L 1159 2956 
Q 1366 3272 1645 3428 
Q 1925 3584 2291 3584 
Q 2894 3584 3203 3211 
Q 3513 2838 3513 2113 
z
" transform="scale(0.015625)"/>
       <path id="DejaVuSans-63" d="M 3122 3366 
L 3122 2828 
Q 2878 2963 2633 3030 
Q 2388 3097 2138 3097 
Q 1578 3097 1268 2742 
Q 959 2388 959 1747 
Q 959 1106 1268 751 
Q 1578 397 2138 397 
Q 2388 397 2633 464 
Q 2878 531 3122 666 
L 3122 134 
Q 2881 22 2623 -34 
Q 2366 -91 2075 -91 
Q 1284 -91 818 406 
Q 353 903 353 1747 
Q 353 2603 823 3093 
Q 1294 3584 2113 3584 
Q 2378 3584 2631 3529 
Q 2884 3475 3122 3366 
z
" transform="scale(0.015625)"/>
       <path id="DejaVuSans-79" d="M 2059 -325 
Q 1816 -950 1584 -1140 
Q 1353 -1331 966 -1331 
L 506 -1331 
L 506 -850 
L 844 -850 
Q 1081 -850 1212 -737 
Q 1344 -625 1503 -206 
L 1606 56 
L 191 3500 
L 800 3500 
L 1894 763 
L 2988 3500 
L 3597 3500 
L 2059 -325 
z
" transform="scale(0.015625)"/>
       <path id="DejaVuSans-20" transform="scale(0.015625)"/>
       <path id="DejaVuSans-5b" d="M 550 4863 
L 1875 4863 
L 1875 4416 
L 1125 4416 
L 1125 -397 
L 1875 -397 
L 1875 -844 
L 550 -844 
L 550 4863 
z
" transform="scale(0.015625)"/>
       <path id="DejaVuSans-6b" d="M 581 4863 
L 1159 4863 
L 1159 1991 
L 2875 3500 
L 3609 3500 
L 1753 1863 
L 3688 0 
L 2938 0 
L 1159 1709 
L 1159 0 
L 581 0 
L 581 4863 
z
" transform="scale(0.015625)"/>
       <path id="DejaVuSans-48" d="M 628 4666 
L 1259 4666 
L 1259 2753 
L 3553 2753 
L 3553 4666 
L 4184 4666 
L 4184 0 
L 3553 0 
L 3553 2222 
L 1259 2222 
L 1259 0 
L 628 0 
L 628 4666 
z
" transform="scale(0.015625)"/>
       <path id="DejaVuSans-7a" d="M 353 3500 
L 3084 3500 
L 3084 2975 
L 922 459 
L 3084 459 
L 3084 0 
L 275 0 
L 275 525 
L 2438 3041 
L 353 3041 
L 353 3500 
z
" transform="scale(0.015625)"/>
       <path id="DejaVuSans-5d" d="M 1947 4863 
L 1947 -844 
L 622 -844 
L 622 -397 
L 1369 -397 
L 1369 4416 
L 622 4416 
L 622 4863 
L 1947 4863 
z
" transform="scale(0.015625)"/>
      </defs>
      <use xlink:href="#DejaVuSans-46"/>
      <use xlink:href="#DejaVuSans-72" transform="translate(50.269531 0)"/>
      <use xlink:href="#DejaVuSans-65" transform="translate(89.132812 0)"/>
      <use xlink:href="#DejaVuSans-71" transform="translate(150.65625 0)"/>
      <use xlink:href="#DejaVuSans-75" transform="translate(214.132812 0)"/>
      <use xlink:href="#DejaVuSans-65" transform="translate(277.511719 0)"/>
      <use xlink:href="#DejaVuSans-6e" transform="translate(339.035156 0)"/>
      <use xlink:href="#DejaVuSans-63" transform="translate(402.414062 0)"/>
      <use xlink:href="#DejaVuSans-79" transform="translate(457.394531 0)"/>
      <use xlink:href="#DejaVuSans-20" transform="translate(516.574219 0)"/>
      <use xlink:href="#DejaVuSans-5b" transform="translate(548.361328 0)"/>
      <use xlink:href="#DejaVuSans-6b" transform="translate(587.375 0)"/>
      <use xlink:href="#DejaVuSans-48" transform="translate(645.285156 0)"/>
      <use xlink:href="#DejaVuSans-7a" transform="translate(720.480469 0)"/>
      <use xlink:href="#DejaVuSans-5d" transform="translate(772.970703 0)"/>
     </g>
    </g>
   </g>
   <g id="matplotlib.axis_2">
    <g id="ytick_1">
     <g id="line2d_15">
      <path d="M 57.6 271.289953 
L 414.72 271.289953 
" clip-path="url(#p21f23e25e7)" style="fill: none; stroke: #b0b0b0; stroke-width: 0.8; stroke-linecap: square"/>
     </g>
     <g id="line2d_16">
      <defs>
       <path id="ma7ae69ad42" d="M 0 0 
L -3.5 0 
" style="stroke: #000000; stroke-width: 0.8"/>
      </defs>
      <g>
       <use xlink:href="#ma7ae69ad42" x="57.6" y="271.289953" style="stroke: #000000; stroke-width: 0.8"/>
      </g>
     </g>
     <g id="text_9">
      <!-- 5 -->
      <g transform="translate(44.2375 275.089171) scale(0.1 -0.1)">
       <use xlink:href="#DejaVuSans-35"/>
      </g>
     </g>
    </g>
    <g id="ytick_2">
     <g id="line2d_17">
      <path d="M 57.6 230.973312 
L 414.72 230.973312 
" clip-path="url(#p21f23e25e7)" style="fill: none; stroke: #b0b0b0; stroke-width: 0.8; stroke-linecap: square"/>
     </g>
     <g id="line2d_18">
      <g>
       <use xlink:href="#ma7ae69ad42" x="57.6" y="230.973312" style="stroke: #000000; stroke-width: 0.8"/>
      </g>
     </g>
     <g id="text_10">
      <!-- 10 -->
      <g transform="translate(37.875 234.772531) scale(0.1 -0.1)">
       <defs>
        <path id="DejaVuSans-31" d="M 794 531 
L 1825 531 
L 1825 4091 
L 703 3866 
L 703 4441 
L 1819 4666 
L 2450 4666 
L 2450 531 
L 3481 531 
L 3481 0 
L 794 0 
L 794 531 
z
" transform="scale(0.015625)"/>
       </defs>
       <use xlink:href="#DejaVuSans-31"/>
       <use xlink:href="#DejaVuSans-30" transform="translate(63.623047 0)"/>
      </g>
     </g>
    </g>
    <g id="ytick_3">
     <g id="line2d_19">
      <path d="M 57.6 190.656672 
L 414.72 190.656672 
" clip-path="url(#p21f23e25e7)" style="fill: none; stroke: #b0b0b0; stroke-width: 0.8; stroke-linecap: square"/>
     </g>
     <g id="line2d_20">
      <g>
       <use xlink:href="#ma7ae69ad42" x="57.6" y="190.656672" style="stroke: #000000; stroke-width: 0.8"/>
      </g>
     </g>
     <g id="text_11">
      <!-- 15 -->
      <g transform="translate(37.875 194.455891) scale(0.1 -0.1)">
       <use xlink:href="#DejaVuSans-31"/>
       <use xlink:href="#DejaVuSans-35" transform="translate(63.623047 0)"/>
      </g>
     </g>
    </g>
    <g id="ytick_4">
     <g id="line2d_21">
      <path d="M 57.6 150.340032 
L 414.72 150.340032 
" clip-path="url(#p21f23e25e7)" style="fill: none; stroke: #b0b0b0; stroke-width: 0.8; stroke-linecap: square"/>
     </g>
     <g id="line2d_22">
      <g>
       <use xlink:href="#ma7ae69ad42" x="57.6" y="150.340032" style="stroke: #000000; stroke-width: 0.8"/>
      </g>
     </g>
     <g id="text_12">
      <!-- 20 -->
      <g transform="translate(37.875 154.13925) scale(0.1 -0.1)">
       <use xlink:href="#DejaVuSans-32"/>
       <use xlink:href="#DejaVuSans-30" transform="translate(63.623047 0)"/>
      </g>
     </g>
    </g>
    <g id="ytick_5">
     <g id="line2d_23">
      <path d="M 57.6 110.023391 
L 414.72 110.023391 
" clip-path="url(#p21f23e25e7)" style="fill: none; stroke: #b0b0b0; stroke-width: 0.8; stroke-linecap: square"/>
     </g>
     <g id="line2d_24">
      <g>
       <use xlink:href="#ma7ae69ad42" x="57.6" y="110.023391" style="stroke: #000000; stroke-width: 0.8"/>
      </g>
     </g>
     <g id="text_13">
      <!-- 25 -->
      <g transform="translate(37.875 113.82261) scale(0.1 -0.1)">
       <use xlink:href="#DejaVuSans-32"/>
       <use xlink:href="#DejaVuSans-35" transform="translate(63.623047 0)"/>
      </g>
     </g>
    </g>
    <g id="ytick_6">
     <g id="line2d_25">
      <path d="M 57.6 69.706751 
L 414.72 69.706751 
" clip-path="url(#p21f23e25e7)" style="fill: none; stroke: #b0b0b0; stroke-width: 0.8; stroke-linecap: square"/>
     </g>
     <g id="line2d_26">
      <g>
       <use xlink:href="#ma7ae69ad42" x="57.6" y="69.706751" style="stroke: #000000; stroke-width: 0.8"/>
      </g>
     </g>
     <g id="text_14">
      <!-- 30 -->
      <g transform="translate(37.875 73.50597) scale(0.1 -0.1)">
       <use xlink:href="#DejaVuSans-33"/>
       <use xlink:href="#DejaVuSans-30" transform="translate(63.623047 0)"/>
      </g>
     </g>
    </g>
    <g id="text_15">
     <!-- Amplitude [mV] -->
     <g transform="translate(31.795312 213.931906) rotate(-90) scale(0.1 -0.1)">
      <defs>
       <path id="DejaVuSans-41" d="M 2188 4044 
L 1331 1722 
L 3047 1722 
L 2188 4044 
z
M 1831 4666 
L 2547 4666 
L 4325 0 
L 3669 0 
L 3244 1197 
L 1141 1197 
L 716 0 
L 50 0 
L 1831 4666 
z
" transform="scale(0.015625)"/>
       <path id="DejaVuSans-6d" d="M 3328 2828 
Q 3544 3216 3844 3400 
Q 4144 3584 4550 3584 
Q 5097 3584 5394 3201 
Q 5691 2819 5691 2113 
L 5691 0 
L 5113 0 
L 5113 2094 
Q 5113 2597 4934 2840 
Q 4756 3084 4391 3084 
Q 3944 3084 3684 2787 
Q 3425 2491 3425 1978 
L 3425 0 
L 2847 0 
L 2847 2094 
Q 2847 2600 2669 2842 
Q 2491 3084 2119 3084 
Q 1678 3084 1418 2786 
Q 1159 2488 1159 1978 
L 1159 0 
L 581 0 
L 581 3500 
L 1159 3500 
L 1159 2956 
Q 1356 3278 1631 3431 
Q 1906 3584 2284 3584 
Q 2666 3584 2933 3390 
Q 3200 3197 3328 2828 
z
" transform="scale(0.015625)"/>
       <path id="DejaVuSans-70" d="M 1159 525 
L 1159 -1331 
L 581 -1331 
L 581 3500 
L 1159 3500 
L 1159 2969 
Q 1341 3281 1617 3432 
Q 1894 3584 2278 3584 
Q 2916 3584 3314 3078 
Q 3713 2572 3713 1747 
Q 3713 922 3314 415 
Q 2916 -91 2278 -91 
Q 1894 -91 1617 61 
Q 1341 213 1159 525 
z
M 3116 1747 
Q 3116 2381 2855 2742 
Q 2594 3103 2138 3103 
Q 1681 3103 1420 2742 
Q 1159 2381 1159 1747 
Q 1159 1113 1420 752 
Q 1681 391 2138 391 
Q 2594 391 2855 752 
Q 3116 1113 3116 1747 
z
" transform="scale(0.015625)"/>
       <path id="DejaVuSans-6c" d="M 603 4863 
L 1178 4863 
L 1178 0 
L 603 0 
L 603 4863 
z
" transform="scale(0.015625)"/>
       <path id="DejaVuSans-69" d="M 603 3500 
L 1178 3500 
L 1178 0 
L 603 0 
L 603 3500 
z
M 603 4863 
L 1178 4863 
L 1178 4134 
L 603 4134 
L 603 4863 
z
" transform="scale(0.015625)"/>
       <path id="DejaVuSans-74" d="M 1172 4494 
L 1172 3500 
L 2356 3500 
L 2356 3053 
L 1172 3053 
L 1172 1153 
Q 1172 725 1289 603 
Q 1406 481 1766 481 
L 2356 481 
L 2356 0 
L 1766 0 
Q 1100 0 847 248 
Q 594 497 594 1153 
L 594 3053 
L 172 3053 
L 172 3500 
L 594 3500 
L 594 4494 
L 1172 4494 
z
" transform="scale(0.015625)"/>
       <path id="DejaVuSans-64" d="M 2906 2969 
L 2906 4863 
L 3481 4863 
L 3481 0 
L 2906 0 
L 2906 525 
Q 2725 213 2448 61 
Q 2172 -91 1784 -91 
Q 1150 -91 751 415 
Q 353 922 353 1747 
Q 353 2572 751 3078 
Q 1150 3584 1784 3584 
Q 2172 3584 2448 3432 
Q 2725 3281 2906 2969 
z
M 947 1747 
Q 947 1113 1208 752 
Q 1469 391 1925 391 
Q 2381 391 2643 752 
Q 2906 1113 2906 1747 
Q 2906 2381 2643 2742 
Q 2381 3103 1925 3103 
Q 1469 3103 1208 2742 
Q 947 2381 947 1747 
z
" transform="scale(0.015625)"/>
       <path id="DejaVuSans-56" d="M 1831 0 
L 50 4666 
L 709 4666 
L 2188 738 
L 3669 4666 
L 4325 4666 
L 2547 0 
L 1831 0 
z
" transform="scale(0.015625)"/>
      </defs>
      <use xlink:href="#DejaVuSans-41"/>
      <use xlink:href="#DejaVuSans-6d" transform="translate(68.408203 0)"/>
      <use xlink:href="#DejaVuSans-70" transform="translate(165.820312 0)"/>
      <use xlink:href="#DejaVuSans-6c" transform="translate(229.296875 0)"/>
      <use xlink:href="#DejaVuSans-69" transform="translate(257.080078 0)"/>
      <use xlink:href="#DejaVuSans-74" transform="translate(284.863281 0)"/>
      <use xlink:href="#DejaVuSans-75" transform="translate(324.072266 0)"/>
      <use xlink:href="#DejaVuSans-64" transform="translate(387.451172 0)"/>
      <use xlink:href="#DejaVuSans-65" transform="translate(450.927734 0)"/>
      <use xlink:href="#DejaVuSans-20" transform="translate(512.451172 0)"/>
      <use xlink:href="#DejaVuSans-5b" transform="translate(544.238281 0)"/>
      <use xlink:href="#DejaVuSans-6d" transform="translate(583.251953 0)"/>
      <use xlink:href="#DejaVuSans-56" transform="translate(680.664062 0)"/>
      <use xlink:href="#DejaVuSans-5d" transform="translate(749.072266 0)"/>
     </g>
    </g>
   </g>
   <g id="LineCollection_1">
    <path d="M 73.832727 295.479937 
L 78.751736 295.479937 
" clip-path="url(#p21f23e25e7)" style="fill: none; stroke: #1f77b4; stroke-width: 1.5"/>
    <path d="M 98.427769 287.416609 
L 103.346777 287.416609 
" clip-path="url(#p21f23e25e7)" style="fill: none; stroke: #1f77b4; stroke-width: 1.5"/>
    <path d="M 123.02281 279.353281 
L 127.941818 279.353281 
" clip-path="url(#p21f23e25e7)" style="fill: none; stroke: #1f77b4; stroke-width: 1.5"/>
    <path d="M 145.158347 256.775962 
L 154.996364 256.775962 
" clip-path="url(#p21f23e25e7)" style="fill: none; stroke: #1f77b4; stroke-width: 1.5"/>
    <path d="M 169.753388 206.783328 
L 179.591405 206.783328 
" clip-path="url(#p21f23e25e7)" style="fill: none; stroke: #1f77b4; stroke-width: 1.5"/>
    <path d="M 184.510413 122.118383 
L 194.34843 122.118383 
" clip-path="url(#p21f23e25e7)" style="fill: none; stroke: #1f77b4; stroke-width: 1.5"/>
    <path d="M 197.053884 53.580095 
L 206.891901 53.580095 
" clip-path="url(#p21f23e25e7)" style="fill: none; stroke: #1f77b4; stroke-width: 1.5"/>
    <path d="M 221.402975 110.023391 
L 231.240992 110.023391 
" clip-path="url(#p21f23e25e7)" style="fill: none; stroke: #1f77b4; stroke-width: 1.5"/>
    <path d="M 245.998017 190.656672 
L 255.836033 190.656672 
" clip-path="url(#p21f23e25e7)" style="fill: none; stroke: #1f77b4; stroke-width: 1.5"/>
    <path d="M 268.133554 214.846656 
L 277.97157 214.846656 
" clip-path="url(#p21f23e25e7)" style="fill: none; stroke: #1f77b4; stroke-width: 1.5"/>
    <path d="M 292.728595 239.03664 
L 302.566612 239.03664 
" clip-path="url(#p21f23e25e7)" style="fill: none; stroke: #1f77b4; stroke-width: 1.5"/>
    <path d="M 317.323636 247.099968 
L 327.161653 247.099968 
" clip-path="url(#p21f23e25e7)" style="fill: none; stroke: #1f77b4; stroke-width: 1.5"/>
    <path d="M 341.918678 255.163296 
L 351.756694 255.163296 
" clip-path="url(#p21f23e25e7)" style="fill: none; stroke: #1f77b4; stroke-width: 1.5"/>
    <path d="M 366.513719 263.226624 
L 376.351736 263.226624 
" clip-path="url(#p21f23e25e7)" style="fill: none; stroke: #1f77b4; stroke-width: 1.5"/>
    <path d="M 393.568264 267.258288 
L 398.487273 267.258288 
" clip-path="url(#p21f23e25e7)" style="fill: none; stroke: #1f77b4; stroke-width: 1.5"/>
    <path d="M 177.131901 164.854022 
L 186.969917 164.854022 
" clip-path="url(#p21f23e25e7)" style="fill: none; stroke: #1f77b4; stroke-width: 1.5"/>
    <path d="M 191.888926 85.833407 
L 201.726942 85.833407 
" clip-path="url(#p21f23e25e7)" style="fill: none; stroke: #1f77b4; stroke-width: 1.5"/>
    <path d="M 196.807934 53.580095 
L 206.64595 53.580095 
" clip-path="url(#p21f23e25e7)" style="fill: none; stroke: #1f77b4; stroke-width: 1.5"/>
    <path d="M 206.64595 69.706751 
L 211.564959 69.706751 
" clip-path="url(#p21f23e25e7)" style="fill: none; stroke: #1f77b4; stroke-width: 1.5"/>
    <path d="M 211.564959 85.833407 
L 221.402975 85.833407 
" clip-path="url(#p21f23e25e7)" style="fill: none; stroke: #1f77b4; stroke-width: 1.5"/>
    <path d="M 226.321983 134.213376 
L 236.16 134.213376 
" clip-path="url(#p21f23e25e7)" style="fill: none; stroke: #1f77b4; stroke-width: 1.5"/>
    <path d="M 236.16 162.435024 
L 245.998017 162.435024 
" clip-path="url(#p21f23e25e7)" style="fill: none; stroke: #1f77b4; stroke-width: 1.5"/>
    <path d="M 189.429421 93.896735 
L 199.267438 93.896735 
" clip-path="url(#p21f23e25e7)" style="fill: none; stroke: #1f77b4; stroke-width: 1.5"/>
   </g>
   <g id="LineCollection_2">
    <path d="M 76.292231 295.488 
L 76.292231 295.471873 
" clip-path="url(#p21f23e25e7)" style="fill: none; stroke: #1f77b4; stroke-width: 1.5"/>
    <path d="M 100.887273 287.428704 
L 100.887273 287.404514 
" clip-path="url(#p21f23e25e7)" style="fill: none; stroke: #1f77b4; stroke-width: 1.5"/>
    <path d="M 125.482314 279.369407 
L 125.482314 279.337154 
" clip-path="url(#p21f23e25e7)" style="fill: none; stroke: #1f77b4; stroke-width: 1.5"/>
    <path d="M 150.077355 256.784025 
L 150.077355 256.767899 
" clip-path="url(#p21f23e25e7)" style="fill: none; stroke: #1f77b4; stroke-width: 1.5"/>
    <path d="M 174.672397 206.78736 
L 174.672397 206.779296 
" clip-path="url(#p21f23e25e7)" style="fill: none; stroke: #1f77b4; stroke-width: 1.5"/>
    <path d="M 189.429421 122.126447 
L 189.429421 122.11032 
" clip-path="url(#p21f23e25e7)" style="fill: none; stroke: #1f77b4; stroke-width: 1.5"/>
    <path d="M 201.972893 53.588158 
L 201.972893 53.572032 
" clip-path="url(#p21f23e25e7)" style="fill: none; stroke: #1f77b4; stroke-width: 1.5"/>
    <path d="M 226.321983 110.031455 
L 226.321983 110.015328 
" clip-path="url(#p21f23e25e7)" style="fill: none; stroke: #1f77b4; stroke-width: 1.5"/>
    <path d="M 250.917025 190.668767 
L 250.917025 190.644577 
" clip-path="url(#p21f23e25e7)" style="fill: none; stroke: #1f77b4; stroke-width: 1.5"/>
    <path d="M 273.052562 214.862783 
L 273.052562 214.830529 
" clip-path="url(#p21f23e25e7)" style="fill: none; stroke: #1f77b4; stroke-width: 1.5"/>
    <path d="M 297.647603 239.048735 
L 297.647603 239.024545 
" clip-path="url(#p21f23e25e7)" style="fill: none; stroke: #1f77b4; stroke-width: 1.5"/>
    <path d="M 322.242645 247.112063 
L 322.242645 247.087873 
" clip-path="url(#p21f23e25e7)" style="fill: none; stroke: #1f77b4; stroke-width: 1.5"/>
    <path d="M 346.837686 255.179423 
L 346.837686 255.14717 
" clip-path="url(#p21f23e25e7)" style="fill: none; stroke: #1f77b4; stroke-width: 1.5"/>
    <path d="M 371.432727 263.238719 
L 371.432727 263.214529 
" clip-path="url(#p21f23e25e7)" style="fill: none; stroke: #1f77b4; stroke-width: 1.5"/>
    <path d="M 396.027769 267.274415 
L 396.027769 267.242162 
" clip-path="url(#p21f23e25e7)" style="fill: none; stroke: #1f77b4; stroke-width: 1.5"/>
    <path d="M 182.050909 164.870149 
L 182.050909 164.837896 
" clip-path="url(#p21f23e25e7)" style="fill: none; stroke: #1f77b4; stroke-width: 1.5"/>
    <path d="M 196.807934 85.849534 
L 196.807934 85.817281 
" clip-path="url(#p21f23e25e7)" style="fill: none; stroke: #1f77b4; stroke-width: 1.5"/>
    <path d="M 201.726942 53.59219 
L 201.726942 53.568 
" clip-path="url(#p21f23e25e7)" style="fill: none; stroke: #1f77b4; stroke-width: 1.5"/>
    <path d="M 209.105455 69.722878 
L 209.105455 69.690624 
" clip-path="url(#p21f23e25e7)" style="fill: none; stroke: #1f77b4; stroke-width: 1.5"/>
    <path d="M 216.483967 85.849534 
L 216.483967 85.817281 
" clip-path="url(#p21f23e25e7)" style="fill: none; stroke: #1f77b4; stroke-width: 1.5"/>
    <path d="M 231.240992 134.229502 
L 231.240992 134.197249 
" clip-path="url(#p21f23e25e7)" style="fill: none; stroke: #1f77b4; stroke-width: 1.5"/>
    <path d="M 241.079008 162.45115 
L 241.079008 162.418897 
" clip-path="url(#p21f23e25e7)" style="fill: none; stroke: #1f77b4; stroke-width: 1.5"/>
    <path d="M 194.34843 93.912862 
L 194.34843 93.880609 
" clip-path="url(#p21f23e25e7)" style="fill: none; stroke: #1f77b4; stroke-width: 1.5"/>
   </g>
   <g id="line2d_27">
    <defs>
     <path id="m59b17b1baf" d="M 0 1.5 
C 0.397805 1.5 0.77937 1.341951 1.06066 1.06066 
C 1.341951 0.77937 1.5 0.397805 1.5 0 
C 1.5 -0.397805 1.341951 -0.77937 1.06066 -1.06066 
C 0.77937 -1.341951 0.397805 -1.5 0 -1.5 
C -0.397805 -1.5 -0.77937 -1.341951 -1.06066 -1.06066 
C -1.341951 -0.77937 -1.5 -0.397805 -1.5 0 
C -1.5 0.397805 -1.341951 0.77937 -1.06066 1.06066 
C -0.77937 1.341951 -0.397805 1.5 0 1.5 
z
" style="stroke: #1f77b4"/>
    </defs>
    <g clip-path="url(#p21f23e25e7)">
     <use xlink:href="#m59b17b1baf" x="76.292231" y="295.479937" style="fill: #1f77b4; stroke: #1f77b4"/>
     <use xlink:href="#m59b17b1baf" x="100.887273" y="287.416609" style="fill: #1f77b4; stroke: #1f77b4"/>
     <use xlink:href="#m59b17b1baf" x="125.482314" y="279.353281" style="fill: #1f77b4; stroke: #1f77b4"/>
     <use xlink:href="#m59b17b1baf" x="150.077355" y="256.775962" style="fill: #1f77b4; stroke: #1f77b4"/>
     <use xlink:href="#m59b17b1baf" x="174.672397" y="206.783328" style="fill: #1f77b4; stroke: #1f77b4"/>
     <use xlink:href="#m59b17b1baf" x="189.429421" y="122.118383" style="fill: #1f77b4; stroke: #1f77b4"/>
     <use xlink:href="#m59b17b1baf" x="201.972893" y="53.580095" style="fill: #1f77b4; stroke: #1f77b4"/>
     <use xlink:href="#m59b17b1baf" x="226.321983" y="110.023391" style="fill: #1f77b4; stroke: #1f77b4"/>
     <use xlink:href="#m59b17b1baf" x="250.917025" y="190.656672" style="fill: #1f77b4; stroke: #1f77b4"/>
     <use xlink:href="#m59b17b1baf" x="273.052562" y="214.846656" style="fill: #1f77b4; stroke: #1f77b4"/>
     <use xlink:href="#m59b17b1baf" x="297.647603" y="239.03664" style="fill: #1f77b4; stroke: #1f77b4"/>
     <use xlink:href="#m59b17b1baf" x="322.242645" y="247.099968" style="fill: #1f77b4; stroke: #1f77b4"/>
     <use xlink:href="#m59b17b1baf" x="346.837686" y="255.163296" style="fill: #1f77b4; stroke: #1f77b4"/>
     <use xlink:href="#m59b17b1baf" x="371.432727" y="263.226624" style="fill: #1f77b4; stroke: #1f77b4"/>
     <use xlink:href="#m59b17b1baf" x="396.027769" y="267.258288" style="fill: #1f77b4; stroke: #1f77b4"/>
     <use xlink:href="#m59b17b1baf" x="182.050909" y="164.854022" style="fill: #1f77b4; stroke: #1f77b4"/>
     <use xlink:href="#m59b17b1baf" x="196.807934" y="85.833407" style="fill: #1f77b4; stroke: #1f77b4"/>
     <use xlink:href="#m59b17b1baf" x="201.726942" y="53.580095" style="fill: #1f77b4; stroke: #1f77b4"/>
     <use xlink:href="#m59b17b1baf" x="209.105455" y="69.706751" style="fill: #1f77b4; stroke: #1f77b4"/>
     <use xlink:href="#m59b17b1baf" x="216.483967" y="85.833407" style="fill: #1f77b4; stroke: #1f77b4"/>
     <use xlink:href="#m59b17b1baf" x="231.240992" y="134.213376" style="fill: #1f77b4; stroke: #1f77b4"/>
     <use xlink:href="#m59b17b1baf" x="241.079008" y="162.435024" style="fill: #1f77b4; stroke: #1f77b4"/>
     <use xlink:href="#m59b17b1baf" x="194.34843" y="93.896735" style="fill: #1f77b4; stroke: #1f77b4"/>
    </g>
   </g>
   <g id="patch_3">
    <path d="M 57.6 307.584 
L 57.6 41.472 
" style="fill: none; stroke: #000000; stroke-width: 0.8; stroke-linejoin: miter; stroke-linecap: square"/>
   </g>
   <g id="patch_4">
    <path d="M 414.72 307.584 
L 414.72 41.472 
" style="fill: none; stroke: #000000; stroke-width: 0.8; stroke-linejoin: miter; stroke-linecap: square"/>
   </g>
   <g id="patch_5">
    <path d="M 57.6 307.584 
L 414.72 307.584 
" style="fill: none; stroke: #000000; stroke-width: 0.8; stroke-linejoin: miter; stroke-linecap: square"/>
   </g>
   <g id="patch_6">
    <path d="M 57.6 41.472 
L 414.72 41.472 
" style="fill: none; stroke: #000000; stroke-width: 0.8; stroke-linejoin: miter; stroke-linecap: square"/>
   </g>
   <g id="line2d_28">
    <defs>
     <path id="ma865f6a4fe" d="M 0 -3 
L -3 3 
L 3 3 
z
" style="stroke: #ff7f0e; stroke-linejoin: miter"/>
    </defs>
    <g clip-path="url(#p21f23e25e7)">
     <use xlink:href="#ma865f6a4fe" x="201.972893" y="53.580095" style="fill: #ff7f0e; stroke: #ff7f0e; stroke-linejoin: miter"/>
     <use xlink:href="#ma865f6a4fe" x="201.726942" y="53.580095" style="fill: #ff7f0e; stroke: #ff7f0e; stroke-linejoin: miter"/>
    </g>
   </g>
   <g id="patch_7">
    <path d="M 119.945457 108.063147 
Q 138.889078 54.783303 198.631134 53.630547 
" style="fill: none; stroke: #ff0000; stroke-width: 1.2; stroke-linecap: round"/>
    <path d="M 194.997079 51.900333 
L 198.631134 53.630547 
L 195.06653 55.499663 
" style="fill: none; stroke: #ff0000; stroke-width: 1.2; stroke-linecap: round"/>
   </g>
   <g id="text_16">
    <g id="patch_8">
     <path d="M 77.162406 136.443399 
L 154.012562 136.443399 
Q 157.612562 136.443399 157.612562 132.843399 
L 157.612562 114.055055 
Q 157.612562 110.455055 154.012562 110.455055 
L 77.162406 110.455055 
Q 73.562406 110.455055 73.562406 114.055055 
L 73.562406 132.843399 
Q 73.562406 136.443399 77.162406 136.443399 
z
" style="fill: #ffffff; opacity: 0.95; stroke: #000000; stroke-linejoin: miter"/>
    </g>
    <!-- 32.0 ± 0.001 mV -->
    <g transform="translate(77.162406 120.893649) scale(0.09 -0.09)">
     <defs>
      <path id="DejaVuSans-b1" d="M 2944 4013 
L 2944 2803 
L 4684 2803 
L 4684 2272 
L 2944 2272 
L 2944 1063 
L 2419 1063 
L 2419 2272 
L 678 2272 
L 678 2803 
L 2419 2803 
L 2419 4013 
L 2944 4013 
z
M 678 531 
L 4684 531 
L 4684 0 
L 678 0 
L 678 531 
z
" transform="scale(0.015625)"/>
     </defs>
     <use xlink:href="#DejaVuSans-33"/>
     <use xlink:href="#DejaVuSans-32" transform="translate(63.623047 0)"/>
     <use xlink:href="#DejaVuSans-2e" transform="translate(127.246094 0)"/>
     <use xlink:href="#DejaVuSans-30" transform="translate(159.033203 0)"/>
     <use xlink:href="#DejaVuSans-20" transform="translate(222.65625 0)"/>
     <use xlink:href="#DejaVuSans-b1" transform="translate(254.443359 0)"/>
     <use xlink:href="#DejaVuSans-20" transform="translate(338.232422 0)"/>
     <use xlink:href="#DejaVuSans-30" transform="translate(370.019531 0)"/>
     <use xlink:href="#DejaVuSans-2e" transform="translate(433.642578 0)"/>
     <use xlink:href="#DejaVuSans-30" transform="translate(465.429688 0)"/>
     <use xlink:href="#DejaVuSans-30" transform="translate(529.052734 0)"/>
     <use xlink:href="#DejaVuSans-31" transform="translate(592.675781 0)"/>
     <use xlink:href="#DejaVuSans-20" transform="translate(656.298828 0)"/>
     <use xlink:href="#DejaVuSans-6d" transform="translate(688.085938 0)"/>
     <use xlink:href="#DejaVuSans-56" transform="translate(785.498047 0)"/>
    </g>
    <!-- at 4.21 kHz -->
    <g transform="translate(102.505843 130.97168) scale(0.09 -0.09)">
     <defs>
      <path id="DejaVuSans-61" d="M 2194 1759 
Q 1497 1759 1228 1600 
Q 959 1441 959 1056 
Q 959 750 1161 570 
Q 1363 391 1709 391 
Q 2188 391 2477 730 
Q 2766 1069 2766 1631 
L 2766 1759 
L 2194 1759 
z
M 3341 1997 
L 3341 0 
L 2766 0 
L 2766 531 
Q 2569 213 2275 61 
Q 1981 -91 1556 -91 
Q 1019 -91 701 211 
Q 384 513 384 1019 
Q 384 1609 779 1909 
Q 1175 2209 1959 2209 
L 2766 2209 
L 2766 2266 
Q 2766 2663 2505 2880 
Q 2244 3097 1772 3097 
Q 1472 3097 1187 3025 
Q 903 2953 641 2809 
L 641 3341 
Q 956 3463 1253 3523 
Q 1550 3584 1831 3584 
Q 2591 3584 2966 3190 
Q 3341 2797 3341 1997 
z
" transform="scale(0.015625)"/>
     </defs>
     <use xlink:href="#DejaVuSans-61"/>
     <use xlink:href="#DejaVuSans-74" transform="translate(61.279297 0)"/>
     <use xlink:href="#DejaVuSans-20" transform="translate(100.488281 0)"/>
     <use xlink:href="#DejaVuSans-34" transform="translate(132.275391 0)"/>
     <use xlink:href="#DejaVuSans-2e" transform="translate(195.898438 0)"/>
     <use xlink:href="#DejaVuSans-32" transform="translate(227.685547 0)"/>
     <use xlink:href="#DejaVuSans-31" transform="translate(291.308594 0)"/>
     <use xlink:href="#DejaVuSans-20" transform="translate(354.931641 0)"/>
     <use xlink:href="#DejaVuSans-6b" transform="translate(386.71875 0)"/>
     <use xlink:href="#DejaVuSans-48" transform="translate(444.628906 0)"/>
     <use xlink:href="#DejaVuSans-7a" transform="translate(519.824219 0)"/>
    </g>
   </g>
   <g id="patch_9">
    <path d="M 119.699506 108.063147 
Q 138.643128 54.783303 198.385184 53.630547 
" style="fill: none; stroke: #ff0000; stroke-width: 1.2; stroke-linecap: round"/>
    <path d="M 194.751128 51.900333 
L 198.385184 53.630547 
L 194.820579 55.499663 
" style="fill: none; stroke: #ff0000; stroke-width: 1.2; stroke-linecap: round"/>
   </g>
   <g id="text_17">
    <g id="patch_10">
     <path d="M 76.916455 136.443399 
L 153.766612 136.443399 
Q 157.366612 136.443399 157.366612 132.843399 
L 157.366612 114.055055 
Q 157.366612 110.455055 153.766612 110.455055 
L 76.916455 110.455055 
Q 73.316455 110.455055 73.316455 114.055055 
L 73.316455 132.843399 
Q 73.316455 136.443399 76.916455 136.443399 
z
" style="fill: #ffffff; opacity: 0.95; stroke: #000000; stroke-linejoin: miter"/>
    </g>
    <!-- 32.0 ± 0.002 mV -->
    <g transform="translate(76.916455 120.893649) scale(0.09 -0.09)">
     <use xlink:href="#DejaVuSans-33"/>
     <use xlink:href="#DejaVuSans-32" transform="translate(63.623047 0)"/>
     <use xlink:href="#DejaVuSans-2e" transform="translate(127.246094 0)"/>
     <use xlink:href="#DejaVuSans-30" transform="translate(159.033203 0)"/>
     <use xlink:href="#DejaVuSans-20" transform="translate(222.65625 0)"/>
     <use xlink:href="#DejaVuSans-b1" transform="translate(254.443359 0)"/>
     <use xlink:href="#DejaVuSans-20" transform="translate(338.232422 0)"/>
     <use xlink:href="#DejaVuSans-30" transform="translate(370.019531 0)"/>
     <use xlink:href="#DejaVuSans-2e" transform="translate(433.642578 0)"/>
     <use xlink:href="#DejaVuSans-30" transform="translate(465.429688 0)"/>
     <use xlink:href="#DejaVuSans-30" transform="translate(529.052734 0)"/>
     <use xlink:href="#DejaVuSans-32" transform="translate(592.675781 0)"/>
     <use xlink:href="#DejaVuSans-20" transform="translate(656.298828 0)"/>
     <use xlink:href="#DejaVuSans-6d" transform="translate(688.085938 0)"/>
     <use xlink:href="#DejaVuSans-56" transform="translate(785.498047 0)"/>
    </g>
    <!-- at 4.21 kHz -->
    <g transform="translate(102.259893 130.97168) scale(0.09 -0.09)">
     <use xlink:href="#DejaVuSans-61"/>
     <use xlink:href="#DejaVuSans-74" transform="translate(61.279297 0)"/>
     <use xlink:href="#DejaVuSans-20" transform="translate(100.488281 0)"/>
     <use xlink:href="#DejaVuSans-34" transform="translate(132.275391 0)"/>
     <use xlink:href="#DejaVuSans-2e" transform="translate(195.898438 0)"/>
     <use xlink:href="#DejaVuSans-32" transform="translate(227.685547 0)"/>
     <use xlink:href="#DejaVuSans-31" transform="translate(291.308594 0)"/>
     <use xlink:href="#DejaVuSans-20" transform="translate(354.931641 0)"/>
     <use xlink:href="#DejaVuSans-6b" transform="translate(386.71875 0)"/>
     <use xlink:href="#DejaVuSans-48" transform="translate(444.628906 0)"/>
     <use xlink:href="#DejaVuSans-7a" transform="translate(519.824219 0)"/>
    </g>
   </g>
   <g id="legend_1">
    <g id="patch_11">
     <path d="M 301.334063 78.82825 
L 407.72 78.82825 
Q 409.72 78.82825 409.72 76.82825 
L 409.72 48.472 
Q 409.72 46.472 407.72 46.472 
L 301.334063 46.472 
Q 299.334063 46.472 299.334063 48.472 
L 299.334063 76.82825 
Q 299.334063 78.82825 301.334063 78.82825 
z
" style="fill: #ffffff; opacity: 0.8; stroke: #cccccc; stroke-linejoin: miter"/>
    </g>
    <g id="line2d_29">
     <g>
      <use xlink:href="#ma865f6a4fe" x="313.334063" y="54.570437" style="fill: #ff7f0e; stroke: #ff7f0e; stroke-linejoin: miter"/>
     </g>
    </g>
    <g id="text_18">
     <!-- Max amplitude -->
     <g transform="translate(331.334063 58.070437) scale(0.1 -0.1)">
      <defs>
       <path id="DejaVuSans-4d" d="M 628 4666 
L 1569 4666 
L 2759 1491 
L 3956 4666 
L 4897 4666 
L 4897 0 
L 4281 0 
L 4281 4097 
L 3078 897 
L 2444 897 
L 1241 4097 
L 1241 0 
L 628 0 
L 628 4666 
z
" transform="scale(0.015625)"/>
       <path id="DejaVuSans-78" d="M 3513 3500 
L 2247 1797 
L 3578 0 
L 2900 0 
L 1881 1375 
L 863 0 
L 184 0 
L 1544 1831 
L 300 3500 
L 978 3500 
L 1906 2253 
L 2834 3500 
L 3513 3500 
z
" transform="scale(0.015625)"/>
      </defs>
      <use xlink:href="#DejaVuSans-4d"/>
      <use xlink:href="#DejaVuSans-61" transform="translate(86.279297 0)"/>
      <use xlink:href="#DejaVuSans-78" transform="translate(147.558594 0)"/>
      <use xlink:href="#DejaVuSans-20" transform="translate(206.738281 0)"/>
      <use xlink:href="#DejaVuSans-61" transform="translate(238.525391 0)"/>
      <use xlink:href="#DejaVuSans-6d" transform="translate(299.804688 0)"/>
      <use xlink:href="#DejaVuSans-70" transform="translate(397.216797 0)"/>
      <use xlink:href="#DejaVuSans-6c" transform="translate(460.693359 0)"/>
      <use xlink:href="#DejaVuSans-69" transform="translate(488.476562 0)"/>
      <use xlink:href="#DejaVuSans-74" transform="translate(516.259766 0)"/>
      <use xlink:href="#DejaVuSans-75" transform="translate(555.46875 0)"/>
      <use xlink:href="#DejaVuSans-64" transform="translate(618.847656 0)"/>
      <use xlink:href="#DejaVuSans-65" transform="translate(682.324219 0)"/>
     </g>
    </g>
    <g id="LineCollection_3">
     <path d="M 308.334063 69.248562 
L 318.334063 69.248562 
" style="fill: none; stroke: #1f77b4; stroke-width: 1.5"/>
    </g>
    <g id="LineCollection_4">
     <path d="M 313.334063 74.248562 
L 313.334063 64.248562 
" style="fill: none; stroke: #1f77b4; stroke-width: 1.5"/>
    </g>
    <g id="line2d_30"/>
    <g id="line2d_31">
     <g>
      <use xlink:href="#m59b17b1baf" x="313.334063" y="69.248562" style="fill: #1f77b4; stroke: #1f77b4"/>
     </g>
    </g>
    <g id="text_19">
     <!-- Data -->
     <g transform="translate(331.334063 72.748562) scale(0.1 -0.1)">
      <defs>
       <path id="DejaVuSans-44" d="M 1259 4147 
L 1259 519 
L 2022 519 
Q 2988 519 3436 956 
Q 3884 1394 3884 2338 
Q 3884 3275 3436 3711 
Q 2988 4147 2022 4147 
L 1259 4147 
z
M 628 4666 
L 1925 4666 
Q 3281 4666 3915 4102 
Q 4550 3538 4550 2338 
Q 4550 1131 3912 565 
Q 3275 0 1925 0 
L 628 0 
L 628 4666 
z
" transform="scale(0.015625)"/>
      </defs>
      <use xlink:href="#DejaVuSans-44"/>
      <use xlink:href="#DejaVuSans-61" transform="translate(77.001953 0)"/>
      <use xlink:href="#DejaVuSans-74" transform="translate(138.28125 0)"/>
      <use xlink:href="#DejaVuSans-61" transform="translate(177.490234 0)"/>
     </g>
    </g>
   </g>
  </g>
 </g>
 <defs>
  <clipPath id="p21f23e25e7">
   <rect x="57.6" y="41.472" width="357.12" height="266.112"/>
  </clipPath>
 </defs>
</svg>
