<?xml version="1.0" encoding="utf-8" standalone="no"?>
<!DOCTYPE svg PUBLIC "-//W3C//DTD SVG 1.1//EN"
  "http://www.w3.org/Graphics/SVG/1.1/DTD/svg11.dtd">
<svg xmlns:xlink="http://www.w3.org/1999/xlink" width="460.8pt" height="345.6pt" viewBox="0 0 460.8 345.6" xmlns="http://www.w3.org/2000/svg" version="1.1">
 <metadata>
  <rdf:RDF xmlns:dc="http://purl.org/dc/elements/1.1/" xmlns:cc="http://creativecommons.org/ns#" xmlns:rdf="http://www.w3.org/1999/02/22-rdf-syntax-ns#">
   <cc:Work>
    <dc:type rdf:resource="http://purl.org/dc/dcmitype/StillImage"/>
    <dc:date>2026-01-10T17:03:23.404052</dc:date>
    <dc:format>image/svg+xml</dc:format>
    <dc:creator>
     <cc:Agent>
      <dc:title>Matplotlib v3.10.7, https://matplotlib.org/</dc:title>
     </cc:Agent>
    </dc:creator>
   </cc:Work>
  </rdf:RDF>
 </metadata>
 <defs>
  <style type="text/css">*{stroke-linejoin: round; stroke-linecap: butt}</style>
 </defs>
 <g id="figure_1">
  <g id="patch_1">
   <path d="M 0 345.6 
L 460.8 345.6 
L 460.8 0 
L 0 0 
z
" style="fill: #ffffff"/>
  </g>
  <g id="axes_1">
   <g id="patch_2">
    <path d="M 57.6 307.584 
L 414.72 307.584 
L 414.72 41.472 
L 57.6 41.472 
z
" style="fill: #ffffff"/>
   </g>
   <g id="matplotlib.axis_1">
    <g id="xtick_1">
     <g id="line2d_1">
      <path d="M 73.832727 307.584 
L 73.832727 41.472 
" clip-path="url(#p6325d02998)" style="fill: none; stroke: #b0b0b0; stroke-width: 0.8; stroke-linecap: square"/>
     </g>
     <g id="line2d_2">
      <defs>
       <path id="m5a767d3897" d="M 0 0 
L 0 3.5 
" style="stroke: #000000; stroke-width: 0.8"/>
      </defs>
      <g>
       <use xlink:href="#m5a767d3897" x="73.832727" y="307.584" style="stroke: #000000; stroke-width: 0.8"/>
      </g>
     </g>
     <g id="text_1">
      <!-- 0 -->
      <g transform="translate(70.651477 322.182437) scale(0.1 -0.1)">
       <defs>
        <path id="DejaVuSans-30" d="M 2034 4250 
Q 1547 4250 1301 3770 
Q 1056 3291 1056 2328 
Q 1056 1369 1301 889 
Q 1547 409 2034 409 
Q 2525 409 2770 889 
Q 3016 1369 3016 2328 
Q 3016 3291 2770 3770 
Q 2525 4250 2034 4250 
z
M 2034 4750 
Q 2819 4750 3233 4129 
Q 3647 3509 3647 2328 
Q 3647 1150 3233 529 
Q 2819 -91 2034 -91 
Q 1250 -91 836 529 
Q 422 1150 422 2328 
Q 422 3509 836 4129 
Q 1250 4750 2034 4750 
z
" transform="scale(0.015625)"/>
       </defs>
       <use xlink:href="#DejaVuSans-30"/>
      </g>
     </g>
    </g>
    <g id="xtick_2">
     <g id="line2d_3">
      <path d="M 138.596274 307.584 
L 138.596274 41.472 
" clip-path="url(#p6325d02998)" style="fill: none; stroke: #b0b0b0; stroke-width: 0.8; stroke-linecap: square"/>
     </g>
     <g id="line2d_4">
      <g>
       <use xlink:href="#m5a767d3897" x="138.596274" y="307.584" style="stroke: #000000; stroke-width: 0.8"/>
      </g>
     </g>
     <g id="text_2">
      <!-- 20 -->
      <g transform="translate(132.233774 322.182437) scale(0.1 -0.1)">
       <defs>
        <path id="DejaVuSans-32" d="M 1228 531 
L 3431 531 
L 3431 0 
L 469 0 
L 469 531 
Q 828 903 1448 1529 
Q 2069 2156 2228 2338 
Q 2531 2678 2651 2914 
Q 2772 3150 2772 3378 
Q 2772 3750 2511 3984 
Q 2250 4219 1831 4219 
Q 1534 4219 1204 4116 
Q 875 4013 500 3803 
L 500 4441 
Q 881 4594 1212 4672 
Q 1544 4750 1819 4750 
Q 2544 4750 2975 4387 
Q 3406 4025 3406 3419 
Q 3406 3131 3298 2873 
Q 3191 2616 2906 2266 
Q 2828 2175 2409 1742 
Q 1991 1309 1228 531 
z
" transform="scale(0.015625)"/>
       </defs>
       <use xlink:href="#DejaVuSans-32"/>
       <use xlink:href="#DejaVuSans-30" transform="translate(63.623047 0)"/>
      </g>
     </g>
    </g>
    <g id="xtick_3">
     <g id="line2d_5">
      <path d="M 203.35982 307.584 
L 203.35982 41.472 
" clip-path="url(#p6325d02998)" style="fill: none; stroke: #b0b0b0; stroke-width: 0.8; stroke-linecap: square"/>
     </g>
     <g id="line2d_6">
      <g>
       <use xlink:href="#m5a767d3897" x="203.35982" y="307.584" style="stroke: #000000; stroke-width: 0.8"/>
      </g>
     </g>
     <g id="text_3">
      <!-- 40 -->
      <g transform="translate(196.99732 322.182437) scale(0.1 -0.1)">
       <defs>
        <path id="DejaVuSans-34" d="M 2419 4116 
L 825 1625 
L 2419 1625 
L 2419 4116 
z
M 2253 4666 
L 3047 4666 
L 3047 1625 
L 3713 1625 
L 3713 1100 
L 3047 1100 
L 3047 0 
L 2419 0 
L 2419 1100 
L 313 1100 
L 313 1709 
L 2253 4666 
z
" transform="scale(0.015625)"/>
       </defs>
       <use xlink:href="#DejaVuSans-34"/>
       <use xlink:href="#DejaVuSans-30" transform="translate(63.623047 0)"/>
      </g>
     </g>
    </g>
    <g id="xtick_4">
     <g id="line2d_7">
      <path d="M 268.123367 307.584 
L 268.123367 41.472 
" clip-path="url(#p6325d02998)" style="fill: none; stroke: #b0b0b0; stroke-width: 0.8; stroke-linecap: square"/>
     </g>
     <g id="line2d_8">
      <g>
       <use xlink:href="#m5a767d3897" x="268.123367" y="307.584" style="stroke: #000000; stroke-width: 0.8"/>
      </g>
     </g>
     <g id="text_4">
      <!-- 60 -->
      <g transform="translate(261.760867 322.182437) scale(0.1 -0.1)">
       <defs>
        <path id="DejaVuSans-36" d="M 2113 2584 
Q 1688 2584 1439 2293 
Q 1191 2003 1191 1497 
Q 1191 994 1439 701 
Q 1688 409 2113 409 
Q 2538 409 2786 701 
Q 3034 994 3034 1497 
Q 3034 2003 2786 2293 
Q 2538 2584 2113 2584 
z
M 3366 4563 
L 3366 3988 
Q 3128 4100 2886 4159 
Q 2644 4219 2406 4219 
Q 1781 4219 1451 3797 
Q 1122 3375 1075 2522 
Q 1259 2794 1537 2939 
Q 1816 3084 2150 3084 
Q 2853 3084 3261 2657 
Q 3669 2231 3669 1497 
Q 3669 778 3244 343 
Q 2819 -91 2113 -91 
Q 1303 -91 875 529 
Q 447 1150 447 2328 
Q 447 3434 972 4092 
Q 1497 4750 2381 4750 
Q 2619 4750 2861 4703 
Q 3103 4656 3366 4563 
z
" transform="scale(0.015625)"/>
       </defs>
       <use xlink:href="#DejaVuSans-36"/>
       <use xlink:href="#DejaVuSans-30" transform="translate(63.623047 0)"/>
      </g>
     </g>
    </g>
    <g id="xtick_5">
     <g id="line2d_9">
      <path d="M 332.886913 307.584 
L 332.886913 41.472 
" clip-path="url(#p6325d02998)" style="fill: none; stroke: #b0b0b0; stroke-width: 0.8; stroke-linecap: square"/>
     </g>
     <g id="line2d_10">
      <g>
       <use xlink:href="#m5a767d3897" x="332.886913" y="307.584" style="stroke: #000000; stroke-width: 0.8"/>
      </g>
     </g>
     <g id="text_5">
      <!-- 80 -->
      <g transform="translate(326.524413 322.182437) scale(0.1 -0.1)">
       <defs>
        <path id="DejaVuSans-38" d="M 2034 2216 
Q 1584 2216 1326 1975 
Q 1069 1734 1069 1313 
Q 1069 891 1326 650 
Q 1584 409 2034 409 
Q 2484 409 2743 651 
Q 3003 894 3003 1313 
Q 3003 1734 2745 1975 
Q 2488 2216 2034 2216 
z
M 1403 2484 
Q 997 2584 770 2862 
Q 544 3141 544 3541 
Q 544 4100 942 4425 
Q 1341 4750 2034 4750 
Q 2731 4750 3128 4425 
Q 3525 4100 3525 3541 
Q 3525 3141 3298 2862 
Q 3072 2584 2669 2484 
Q 3125 2378 3379 2068 
Q 3634 1759 3634 1313 
Q 3634 634 3220 271 
Q 2806 -91 2034 -91 
Q 1263 -91 848 271 
Q 434 634 434 1313 
Q 434 1759 690 2068 
Q 947 2378 1403 2484 
z
M 1172 3481 
Q 1172 3119 1398 2916 
Q 1625 2713 2034 2713 
Q 2441 2713 2670 2916 
Q 2900 3119 2900 3481 
Q 2900 3844 2670 4047 
Q 2441 4250 2034 4250 
Q 1625 4250 1398 4047 
Q 1172 3844 1172 3481 
z
" transform="scale(0.015625)"/>
       </defs>
       <use xlink:href="#DejaVuSans-38"/>
       <use xlink:href="#DejaVuSans-30" transform="translate(63.623047 0)"/>
      </g>
     </g>
    </g>
    <g id="xtick_6">
     <g id="line2d_11">
      <path d="M 397.65046 307.584 
L 397.65046 41.472 
" clip-path="url(#p6325d02998)" style="fill: none; stroke: #b0b0b0; stroke-width: 0.8; stroke-linecap: square"/>
     </g>
     <g id="line2d_12">
      <g>
       <use xlink:href="#m5a767d3897" x="397.65046" y="307.584" style="stroke: #000000; stroke-width: 0.8"/>
      </g>
     </g>
     <g id="text_6">
      <!-- 100 -->
      <g transform="translate(388.10671 322.182437) scale(0.1 -0.1)">
       <defs>
        <path id="DejaVuSans-31" d="M 794 531 
L 1825 531 
L 1825 4091 
L 703 3866 
L 703 4441 
L 1819 4666 
L 2450 4666 
L 2450 531 
L 3481 531 
L 3481 0 
L 794 0 
L 794 531 
z
" transform="scale(0.015625)"/>
       </defs>
       <use xlink:href="#DejaVuSans-31"/>
       <use xlink:href="#DejaVuSans-30" transform="translate(63.623047 0)"/>
       <use xlink:href="#DejaVuSans-30" transform="translate(127.246094 0)"/>
      </g>
     </g>
    </g>
    <g id="text_7">
     <!-- Pressure [kPa] -->
     <g transform="translate(200.575625 335.860562) scale(0.1 -0.1)">
      <defs>
       <path id="DejaVuSans-50" d="M 1259 4147 
L 1259 2394 
L 2053 2394 
Q 2494 2394 2734 2622 
Q 2975 2850 2975 3272 
Q 2975 3691 2734 3919 
Q 2494 4147 2053 4147 
L 1259 4147 
z
M 628 4666 
L 2053 4666 
Q 2838 4666 3239 4311 
Q 3641 3956 3641 3272 
Q 3641 2581 3239 2228 
Q 2838 1875 2053 1875 
L 1259 1875 
L 1259 0 
L 628 0 
L 628 4666 
z
" transform="scale(0.015625)"/>
       <path id="DejaVuSans-72" d="M 2631 2963 
Q 2534 3019 2420 3045 
Q 2306 3072 2169 3072 
Q 1681 3072 1420 2755 
Q 1159 2438 1159 1844 
L 1159 0 
L 581 0 
L 581 3500 
L 1159 3500 
L 1159 2956 
Q 1341 3275 1631 3429 
Q 1922 3584 2338 3584 
Q 2397 3584 2469 3576 
Q 2541 3569 2628 3553 
L 2631 2963 
z
" transform="scale(0.015625)"/>
       <path id="DejaVuSans-65" d="M 3597 1894 
L 3597 1613 
L 953 1613 
Q 991 1019 1311 708 
Q 1631 397 2203 397 
Q 2534 397 2845 478 
Q 3156 559 3463 722 
L 3463 178 
Q 3153 47 2828 -22 
Q 2503 -91 2169 -91 
Q 1331 -91 842 396 
Q 353 884 353 1716 
Q 353 2575 817 3079 
Q 1281 3584 2069 3584 
Q 2775 3584 3186 3129 
Q 3597 2675 3597 1894 
z
M 3022 2063 
Q 3016 2534 2758 2815 
Q 2500 3097 2075 3097 
Q 1594 3097 1305 2825 
Q 1016 2553 972 2059 
L 3022 2063 
z
" transform="scale(0.015625)"/>
       <path id="DejaVuSans-73" d="M 2834 3397 
L 2834 2853 
Q 2591 2978 2328 3040 
Q 2066 3103 1784 3103 
Q 1356 3103 1142 2972 
Q 928 2841 928 2578 
Q 928 2378 1081 2264 
Q 1234 2150 1697 2047 
L 1894 2003 
Q 2506 1872 2764 1633 
Q 3022 1394 3022 966 
Q 3022 478 2636 193 
Q 2250 -91 1575 -91 
Q 1294 -91 989 -36 
Q 684 19 347 128 
L 347 722 
Q 666 556 975 473 
Q 1284 391 1588 391 
Q 1994 391 2212 530 
Q 2431 669 2431 922 
Q 2431 1156 2273 1281 
Q 2116 1406 1581 1522 
L 1381 1569 
Q 847 1681 609 1914 
Q 372 2147 372 2553 
Q 372 3047 722 3315 
Q 1072 3584 1716 3584 
Q 2034 3584 2315 3537 
Q 2597 3491 2834 3397 
z
" transform="scale(0.015625)"/>
       <path id="DejaVuSans-75" d="M 544 1381 
L 544 3500 
L 1119 3500 
L 1119 1403 
Q 1119 906 1312 657 
Q 1506 409 1894 409 
Q 2359 409 2629 706 
Q 2900 1003 2900 1516 
L 2900 3500 
L 3475 3500 
L 3475 0 
L 2900 0 
L 2900 538 
Q 2691 219 2414 64 
Q 2138 -91 1772 -91 
Q 1169 -91 856 284 
Q 544 659 544 1381 
z
M 1991 3584 
L 1991 3584 
z
" transform="scale(0.015625)"/>
       <path id="DejaVuSans-20" transform="scale(0.015625)"/>
       <path id="DejaVuSans-5b" d="M 550 4863 
L 1875 4863 
L 1875 4416 
L 1125 4416 
L 1125 -397 
L 1875 -397 
L 1875 -844 
L 550 -844 
L 550 4863 
z
" transform="scale(0.015625)"/>
       <path id="DejaVuSans-6b" d="M 581 4863 
L 1159 4863 
L 1159 1991 
L 2875 3500 
L 3609 3500 
L 1753 1863 
L 3688 0 
L 2938 0 
L 1159 1709 
L 1159 0 
L 581 0 
L 581 4863 
z
" transform="scale(0.015625)"/>
       <path id="DejaVuSans-61" d="M 2194 1759 
Q 1497 1759 1228 1600 
Q 959 1441 959 1056 
Q 959 750 1161 570 
Q 1363 391 1709 391 
Q 2188 391 2477 730 
Q 2766 1069 2766 1631 
L 2766 1759 
L 2194 1759 
z
M 3341 1997 
L 3341 0 
L 2766 0 
L 2766 531 
Q 2569 213 2275 61 
Q 1981 -91 1556 -91 
Q 1019 -91 701 211 
Q 384 513 384 1019 
Q 384 1609 779 1909 
Q 1175 2209 1959 2209 
L 2766 2209 
L 2766 2266 
Q 2766 2663 2505 2880 
Q 2244 3097 1772 3097 
Q 1472 3097 1187 3025 
Q 903 2953 641 2809 
L 641 3341 
Q 956 3463 1253 3523 
Q 1550 3584 1831 3584 
Q 2591 3584 2966 3190 
Q 3341 2797 3341 1997 
z
" transform="scale(0.015625)"/>
       <path id="DejaVuSans-5d" d="M 1947 4863 
L 1947 -844 
L 622 -844 
L 622 -397 
L 1369 -397 
L 1369 4416 
L 622 4416 
L 622 4863 
L 1947 4863 
z
" transform="scale(0.015625)"/>
      </defs>
      <use xlink:href="#DejaVuSans-50"/>
      <use xlink:href="#DejaVuSans-72" transform="translate(58.552734 0)"/>
      <use xlink:href="#DejaVuSans-65" transform="translate(97.416016 0)"/>
      <use xlink:href="#DejaVuSans-73" transform="translate(158.939453 0)"/>
      <use xlink:href="#DejaVuSans-73" transform="translate(211.039062 0)"/>
      <use xlink:href="#DejaVuSans-75" transform="translate(263.138672 0)"/>
      <use xlink:href="#DejaVuSans-72" transform="translate(326.517578 0)"/>
      <use xlink:href="#DejaVuSans-65" transform="translate(365.380859 0)"/>
      <use xlink:href="#DejaVuSans-20" transform="translate(426.904297 0)"/>
      <use xlink:href="#DejaVuSans-5b" transform="translate(458.691406 0)"/>
      <use xlink:href="#DejaVuSans-6b" transform="translate(497.705078 0)"/>
      <use xlink:href="#DejaVuSans-50" transform="translate(555.615234 0)"/>
      <use xlink:href="#DejaVuSans-61" transform="translate(611.417969 0)"/>
      <use xlink:href="#DejaVuSans-5d" transform="translate(672.697266 0)"/>
     </g>
    </g>
   </g>
   <g id="matplotlib.axis_2">
    <g id="ytick_1">
     <g id="line2d_13">
      <path d="M 57.6 291.011477 
L 414.72 291.011477 
" clip-path="url(#p6325d02998)" style="fill: none; stroke: #b0b0b0; stroke-width: 0.8; stroke-linecap: square"/>
     </g>
     <g id="line2d_14">
      <defs>
       <path id="m0ab0ec5dda" d="M 0 0 
L -3.5 0 
" style="stroke: #000000; stroke-width: 0.8"/>
      </defs>
      <g>
       <use xlink:href="#m0ab0ec5dda" x="57.6" y="291.011477" style="stroke: #000000; stroke-width: 0.8"/>
      </g>
     </g>
     <g id="text_8">
      <!-- −50 -->
      <g transform="translate(29.495313 294.810696) scale(0.1 -0.1)">
       <defs>
        <path id="DejaVuSans-2212" d="M 678 2272 
L 4684 2272 
L 4684 1741 
L 678 1741 
L 678 2272 
z
" transform="scale(0.015625)"/>
        <path id="DejaVuSans-35" d="M 691 4666 
L 3169 4666 
L 3169 4134 
L 1269 4134 
L 1269 2991 
Q 1406 3038 1543 3061 
Q 1681 3084 1819 3084 
Q 2600 3084 3056 2656 
Q 3513 2228 3513 1497 
Q 3513 744 3044 326 
Q 2575 -91 1722 -91 
Q 1428 -91 1123 -41 
Q 819 9 494 109 
L 494 744 
Q 775 591 1075 516 
Q 1375 441 1709 441 
Q 2250 441 2565 725 
Q 2881 1009 2881 1497 
Q 2881 1984 2565 2268 
Q 2250 2553 1709 2553 
Q 1456 2553 1204 2497 
Q 953 2441 691 2322 
L 691 4666 
z
" transform="scale(0.015625)"/>
       </defs>
       <use xlink:href="#DejaVuSans-2212"/>
       <use xlink:href="#DejaVuSans-35" transform="translate(83.789062 0)"/>
       <use xlink:href="#DejaVuSans-30" transform="translate(147.412109 0)"/>
      </g>
     </g>
    </g>
    <g id="ytick_2">
     <g id="line2d_15">
      <path d="M 57.6 232.29145 
L 414.72 232.29145 
" clip-path="url(#p6325d02998)" style="fill: none; stroke: #b0b0b0; stroke-width: 0.8; stroke-linecap: square"/>
     </g>
     <g id="line2d_16">
      <g>
       <use xlink:href="#m0ab0ec5dda" x="57.6" y="232.29145" style="stroke: #000000; stroke-width: 0.8"/>
      </g>
     </g>
     <g id="text_9">
      <!-- 0 -->
      <g transform="translate(44.2375 236.090669) scale(0.1 -0.1)">
       <use xlink:href="#DejaVuSans-30"/>
      </g>
     </g>
    </g>
    <g id="ytick_3">
     <g id="line2d_17">
      <path d="M 57.6 173.571423 
L 414.72 173.571423 
" clip-path="url(#p6325d02998)" style="fill: none; stroke: #b0b0b0; stroke-width: 0.8; stroke-linecap: square"/>
     </g>
     <g id="line2d_18">
      <g>
       <use xlink:href="#m0ab0ec5dda" x="57.6" y="173.571423" style="stroke: #000000; stroke-width: 0.8"/>
      </g>
     </g>
     <g id="text_10">
      <!-- 50 -->
      <g transform="translate(37.875 177.370642) scale(0.1 -0.1)">
       <use xlink:href="#DejaVuSans-35"/>
       <use xlink:href="#DejaVuSans-30" transform="translate(63.623047 0)"/>
      </g>
     </g>
    </g>
    <g id="ytick_4">
     <g id="line2d_19">
      <path d="M 57.6 114.851396 
L 414.72 114.851396 
" clip-path="url(#p6325d02998)" style="fill: none; stroke: #b0b0b0; stroke-width: 0.8; stroke-linecap: square"/>
     </g>
     <g id="line2d_20">
      <g>
       <use xlink:href="#m0ab0ec5dda" x="57.6" y="114.851396" style="stroke: #000000; stroke-width: 0.8"/>
      </g>
     </g>
     <g id="text_11">
      <!-- 100 -->
      <g transform="translate(31.5125 118.650615) scale(0.1 -0.1)">
       <use xlink:href="#DejaVuSans-31"/>
       <use xlink:href="#DejaVuSans-30" transform="translate(63.623047 0)"/>
       <use xlink:href="#DejaVuSans-30" transform="translate(127.246094 0)"/>
      </g>
     </g>
    </g>
    <g id="ytick_5">
     <g id="line2d_21">
      <path d="M 57.6 56.131369 
L 414.72 56.131369 
" clip-path="url(#p6325d02998)" style="fill: none; stroke: #b0b0b0; stroke-width: 0.8; stroke-linecap: square"/>
     </g>
     <g id="line2d_22">
      <g>
       <use xlink:href="#m0ab0ec5dda" x="57.6" y="56.131369" style="stroke: #000000; stroke-width: 0.8"/>
      </g>
     </g>
     <g id="text_12">
      <!-- 150 -->
      <g transform="translate(31.5125 59.930588) scale(0.1 -0.1)">
       <use xlink:href="#DejaVuSans-31"/>
       <use xlink:href="#DejaVuSans-35" transform="translate(63.623047 0)"/>
       <use xlink:href="#DejaVuSans-30" transform="translate(127.246094 0)"/>
      </g>
     </g>
    </g>
    <g id="text_13">
     <!-- number of fringes -->
     <g transform="translate(23.415625 219.268625) rotate(-90) scale(0.1 -0.1)">
      <defs>
       <path id="DejaVuSans-6e" d="M 3513 2113 
L 3513 0 
L 2938 0 
L 2938 2094 
Q 2938 2591 2744 2837 
Q 2550 3084 2163 3084 
Q 1697 3084 1428 2787 
Q 1159 2491 1159 1978 
L 1159 0 
L 581 0 
L 581 3500 
L 1159 3500 
L 1159 2956 
Q 1366 3272 1645 3428 
Q 1925 3584 2291 3584 
Q 2894 3584 3203 3211 
Q 3513 2838 3513 2113 
z
" transform="scale(0.015625)"/>
       <path id="DejaVuSans-6d" d="M 3328 2828 
Q 3544 3216 3844 3400 
Q 4144 3584 4550 3584 
Q 5097 3584 5394 3201 
Q 5691 2819 5691 2113 
L 5691 0 
L 5113 0 
L 5113 2094 
Q 5113 2597 4934 2840 
Q 4756 3084 4391 3084 
Q 3944 3084 3684 2787 
Q 3425 2491 3425 1978 
L 3425 0 
L 2847 0 
L 2847 2094 
Q 2847 2600 2669 2842 
Q 2491 3084 2119 3084 
Q 1678 3084 1418 2786 
Q 1159 2488 1159 1978 
L 1159 0 
L 581 0 
L 581 3500 
L 1159 3500 
L 1159 2956 
Q 1356 3278 1631 3431 
Q 1906 3584 2284 3584 
Q 2666 3584 2933 3390 
Q 3200 3197 3328 2828 
z
" transform="scale(0.015625)"/>
       <path id="DejaVuSans-62" d="M 3116 1747 
Q 3116 2381 2855 2742 
Q 2594 3103 2138 3103 
Q 1681 3103 1420 2742 
Q 1159 2381 1159 1747 
Q 1159 1113 1420 752 
Q 1681 391 2138 391 
Q 2594 391 2855 752 
Q 3116 1113 3116 1747 
z
M 1159 2969 
Q 1341 3281 1617 3432 
Q 1894 3584 2278 3584 
Q 2916 3584 3314 3078 
Q 3713 2572 3713 1747 
Q 3713 922 3314 415 
Q 2916 -91 2278 -91 
Q 1894 -91 1617 61 
Q 1341 213 1159 525 
L 1159 0 
L 581 0 
L 581 4863 
L 1159 4863 
L 1159 2969 
z
" transform="scale(0.015625)"/>
       <path id="DejaVuSans-6f" d="M 1959 3097 
Q 1497 3097 1228 2736 
Q 959 2375 959 1747 
Q 959 1119 1226 758 
Q 1494 397 1959 397 
Q 2419 397 2687 759 
Q 2956 1122 2956 1747 
Q 2956 2369 2687 2733 
Q 2419 3097 1959 3097 
z
M 1959 3584 
Q 2709 3584 3137 3096 
Q 3566 2609 3566 1747 
Q 3566 888 3137 398 
Q 2709 -91 1959 -91 
Q 1206 -91 779 398 
Q 353 888 353 1747 
Q 353 2609 779 3096 
Q 1206 3584 1959 3584 
z
" transform="scale(0.015625)"/>
       <path id="DejaVuSans-66" d="M 2375 4863 
L 2375 4384 
L 1825 4384 
Q 1516 4384 1395 4259 
Q 1275 4134 1275 3809 
L 1275 3500 
L 2222 3500 
L 2222 3053 
L 1275 3053 
L 1275 0 
L 697 0 
L 697 3053 
L 147 3053 
L 147 3500 
L 697 3500 
L 697 3744 
Q 697 4328 969 4595 
Q 1241 4863 1831 4863 
L 2375 4863 
z
" transform="scale(0.015625)"/>
       <path id="DejaVuSans-69" d="M 603 3500 
L 1178 3500 
L 1178 0 
L 603 0 
L 603 3500 
z
M 603 4863 
L 1178 4863 
L 1178 4134 
L 603 4134 
L 603 4863 
z
" transform="scale(0.015625)"/>
       <path id="DejaVuSans-67" d="M 2906 1791 
Q 2906 2416 2648 2759 
Q 2391 3103 1925 3103 
Q 1463 3103 1205 2759 
Q 947 2416 947 1791 
Q 947 1169 1205 825 
Q 1463 481 1925 481 
Q 2391 481 2648 825 
Q 2906 1169 2906 1791 
z
M 3481 434 
Q 3481 -459 3084 -895 
Q 2688 -1331 1869 -1331 
Q 1566 -1331 1297 -1286 
Q 1028 -1241 775 -1147 
L 775 -588 
Q 1028 -725 1275 -790 
Q 1522 -856 1778 -856 
Q 2344 -856 2625 -561 
Q 2906 -266 2906 331 
L 2906 616 
Q 2728 306 2450 153 
Q 2172 0 1784 0 
Q 1141 0 747 490 
Q 353 981 353 1791 
Q 353 2603 747 3093 
Q 1141 3584 1784 3584 
Q 2172 3584 2450 3431 
Q 2728 3278 2906 2969 
L 2906 3500 
L 3481 3500 
L 3481 434 
z
" transform="scale(0.015625)"/>
      </defs>
      <use xlink:href="#DejaVuSans-6e"/>
      <use xlink:href="#DejaVuSans-75" transform="translate(63.378906 0)"/>
      <use xlink:href="#DejaVuSans-6d" transform="translate(126.757812 0)"/>
      <use xlink:href="#DejaVuSans-62" transform="translate(224.169922 0)"/>
      <use xlink:href="#DejaVuSans-65" transform="translate(287.646484 0)"/>
      <use xlink:href="#DejaVuSans-72" transform="translate(349.169922 0)"/>
      <use xlink:href="#DejaVuSans-20" transform="translate(390.283203 0)"/>
      <use xlink:href="#DejaVuSans-6f" transform="translate(422.070312 0)"/>
      <use xlink:href="#DejaVuSans-66" transform="translate(483.251953 0)"/>
      <use xlink:href="#DejaVuSans-20" transform="translate(518.457031 0)"/>
      <use xlink:href="#DejaVuSans-66" transform="translate(550.244141 0)"/>
      <use xlink:href="#DejaVuSans-72" transform="translate(585.449219 0)"/>
      <use xlink:href="#DejaVuSans-69" transform="translate(626.5625 0)"/>
      <use xlink:href="#DejaVuSans-6e" transform="translate(654.345703 0)"/>
      <use xlink:href="#DejaVuSans-67" transform="translate(717.724609 0)"/>
      <use xlink:href="#DejaVuSans-65" transform="translate(781.201172 0)"/>
      <use xlink:href="#DejaVuSans-73" transform="translate(842.724609 0)"/>
     </g>
    </g>
   </g>
   <g id="LineCollection_1">
    <path d="M 80.308549 232.29145 
L 81.171992 232.29145 
" clip-path="url(#p6325d02998)" style="fill: none; stroke: #1f77b4; stroke-width: 1.5"/>
    <path d="M 104.05323 220.547445 
L 104.916673 220.547445 
" clip-path="url(#p6325d02998)" style="fill: none; stroke: #1f77b4; stroke-width: 1.5"/>
    <path d="M 130.38824 208.803439 
L 131.251683 208.803439 
" clip-path="url(#p6325d02998)" style="fill: none; stroke: #1f77b4; stroke-width: 1.5"/>
    <path d="M 158.881857 197.059434 
L 159.7453 197.059434 
" clip-path="url(#p6325d02998)" style="fill: none; stroke: #1f77b4; stroke-width: 1.5"/>
    <path d="M 183.058259 185.315428 
L 183.921702 185.315428 
" clip-path="url(#p6325d02998)" style="fill: none; stroke: #1f77b4; stroke-width: 1.5"/>
    <path d="M 208.098104 173.571423 
L 208.961547 173.571423 
" clip-path="url(#p6325d02998)" style="fill: none; stroke: #1f77b4; stroke-width: 1.5"/>
    <path d="M 237.023443 161.827418 
L 237.886886 161.827418 
" clip-path="url(#p6325d02998)" style="fill: none; stroke: #1f77b4; stroke-width: 1.5"/>
    <path d="M 259.904681 150.083412 
L 260.768124 150.083412 
" clip-path="url(#p6325d02998)" style="fill: none; stroke: #1f77b4; stroke-width: 1.5"/>
    <path d="M 289.261741 138.339407 
L 290.125184 138.339407 
" clip-path="url(#p6325d02998)" style="fill: none; stroke: #1f77b4; stroke-width: 1.5"/>
    <path d="M 313.869865 126.595402 
L 314.733308 126.595402 
" clip-path="url(#p6325d02998)" style="fill: none; stroke: #1f77b4; stroke-width: 1.5"/>
    <path d="M 341.068317 114.851396 
L 341.93176 114.851396 
" clip-path="url(#p6325d02998)" style="fill: none; stroke: #1f77b4; stroke-width: 1.5"/>
    <path d="M 369.561934 103.107391 
L 370.425377 103.107391 
" clip-path="url(#p6325d02998)" style="fill: none; stroke: #1f77b4; stroke-width: 1.5"/>
    <path d="M 394.601779 91.363385 
L 395.465222 91.363385 
" clip-path="url(#p6325d02998)" style="fill: none; stroke: #1f77b4; stroke-width: 1.5"/>
   </g>
   <g id="LineCollection_2">
    <path d="M 80.740271 233.465851 
L 80.740271 231.117049 
" clip-path="url(#p6325d02998)" style="fill: none; stroke: #1f77b4; stroke-width: 1.5"/>
    <path d="M 104.484952 221.721845 
L 104.484952 219.373044 
" clip-path="url(#p6325d02998)" style="fill: none; stroke: #1f77b4; stroke-width: 1.5"/>
    <path d="M 130.819961 209.97784 
L 130.819961 207.629039 
" clip-path="url(#p6325d02998)" style="fill: none; stroke: #1f77b4; stroke-width: 1.5"/>
    <path d="M 159.313578 198.233834 
L 159.313578 195.885033 
" clip-path="url(#p6325d02998)" style="fill: none; stroke: #1f77b4; stroke-width: 1.5"/>
    <path d="M 183.489981 186.489829 
L 183.489981 184.141028 
" clip-path="url(#p6325d02998)" style="fill: none; stroke: #1f77b4; stroke-width: 1.5"/>
    <path d="M 208.529826 174.745824 
L 208.529826 172.397023 
" clip-path="url(#p6325d02998)" style="fill: none; stroke: #1f77b4; stroke-width: 1.5"/>
    <path d="M 237.455164 163.001818 
L 237.455164 160.653017 
" clip-path="url(#p6325d02998)" style="fill: none; stroke: #1f77b4; stroke-width: 1.5"/>
    <path d="M 260.336402 151.257813 
L 260.336402 148.909012 
" clip-path="url(#p6325d02998)" style="fill: none; stroke: #1f77b4; stroke-width: 1.5"/>
    <path d="M 289.693462 139.513807 
L 289.693462 137.165006 
" clip-path="url(#p6325d02998)" style="fill: none; stroke: #1f77b4; stroke-width: 1.5"/>
    <path d="M 314.301586 127.769802 
L 314.301586 125.421001 
" clip-path="url(#p6325d02998)" style="fill: none; stroke: #1f77b4; stroke-width: 1.5"/>
    <path d="M 341.500039 116.025797 
L 341.500039 113.676996 
" clip-path="url(#p6325d02998)" style="fill: none; stroke: #1f77b4; stroke-width: 1.5"/>
    <path d="M 369.993656 104.281791 
L 369.993656 101.93299 
" clip-path="url(#p6325d02998)" style="fill: none; stroke: #1f77b4; stroke-width: 1.5"/>
    <path d="M 395.033501 92.537786 
L 395.033501 90.188985 
" clip-path="url(#p6325d02998)" style="fill: none; stroke: #1f77b4; stroke-width: 1.5"/>
   </g>
   <g id="line2d_23">
    <path d="M 73.832727 234.5135 
L 77.07718 233.06457 
L 80.321632 231.615639 
L 83.566084 230.166708 
L 86.810536 228.717777 
L 90.054989 227.268846 
L 93.299441 225.819915 
L 96.543893 224.370985 
L 99.788345 222.922054 
L 103.032798 221.473123 
L 106.27725 220.024192 
L 109.521702 218.575261 
L 112.766154 217.12633 
L 116.010607 215.6774 
L 119.255059 214.228469 
L 122.499511 212.779538 
L 125.743963 211.330607 
L 128.988416 209.881676 
L 132.232868 208.432745 
L 135.47732 206.983815 
L 138.721772 205.534884 
L 141.966225 204.085953 
L 145.210677 202.637022 
L 148.455129 201.188091 
L 151.699582 199.73916 
L 154.944034 198.29023 
L 158.188486 196.841299 
L 161.432938 195.392368 
L 164.677391 193.943437 
L 167.921843 192.494506 
L 171.166295 191.045575 
L 174.410747 189.596645 
L 177.6552 188.147714 
L 180.899652 186.698783 
L 184.144104 185.249852 
L 187.388556 183.800921 
L 190.633009 182.35199 
L 193.877461 180.90306 
L 197.121913 179.454129 
L 200.366365 178.005198 
L 203.610818 176.556267 
L 206.85527 175.107336 
L 210.099722 173.658405 
L 213.344174 172.209475 
L 216.588627 170.760544 
L 219.833079 169.311613 
L 223.077531 167.862682 
L 226.321983 166.413751 
L 229.566436 164.96482 
L 232.810888 163.51589 
L 236.05534 162.066959 
L 239.299793 160.618028 
L 242.544245 159.169097 
L 245.788697 157.720166 
L 249.033149 156.271235 
L 252.277602 154.822305 
L 255.522054 153.373374 
L 258.766506 151.924443 
L 262.010958 150.475512 
L 265.255411 149.026581 
L 268.499863 147.57765 
L 271.744315 146.12872 
L 274.988767 144.679789 
L 278.23322 143.230858 
L 281.477672 141.781927 
L 284.722124 140.332996 
L 287.966576 138.884065 
L 291.211029 137.435135 
L 294.455481 135.986204 
L 297.699933 134.537273 
L 300.944385 133.088342 
L 304.188838 131.639411 
L 307.43329 130.19048 
L 310.677742 128.74155 
L 313.922194 127.292619 
L 317.166647 125.843688 
L 320.411099 124.394757 
L 323.655551 122.945826 
L 326.900004 121.496895 
L 330.144456 120.047965 
L 333.388908 118.599034 
L 336.63336 117.150103 
L 339.877813 115.701172 
L 343.122265 114.252241 
L 346.366717 112.80331 
L 349.611169 111.35438 
L 352.855622 109.905449 
L 356.100074 108.456518 
L 359.344526 107.007587 
L 362.588978 105.558656 
L 365.833431 104.109725 
L 369.077883 102.660795 
L 372.322335 101.211864 
L 375.566787 99.762933 
L 378.81124 98.314002 
L 382.055692 96.865071 
L 385.300144 95.41614 
L 388.544596 93.967209 
L 391.789049 92.518279 
L 395.033501 91.069348 
" clip-path="url(#p6325d02998)" style="fill: none; stroke: #1f77b4; stroke-width: 1.5; stroke-linecap: square"/>
   </g>
   <g id="LineCollection_3">
    <path d="M 227.957292 232.29145 
L 228.820735 232.29145 
" clip-path="url(#p6325d02998)" style="fill: none; stroke: #ff7f0e; stroke-width: 1.5"/>
    <path d="M 254.292302 220.547445 
L 255.155745 220.547445 
" clip-path="url(#p6325d02998)" style="fill: none; stroke: #ff7f0e; stroke-width: 1.5"/>
    <path d="M 280.19559 208.803439 
L 281.059033 208.803439 
" clip-path="url(#p6325d02998)" style="fill: none; stroke: #ff7f0e; stroke-width: 1.5"/>
    <path d="M 306.5306 197.059434 
L 307.394043 197.059434 
" clip-path="url(#p6325d02998)" style="fill: none; stroke: #ff7f0e; stroke-width: 1.5"/>
    <path d="M 336.319381 185.315428 
L 337.182824 185.315428 
" clip-path="url(#p6325d02998)" style="fill: none; stroke: #ff7f0e; stroke-width: 1.5"/>
    <path d="M 366.108162 173.571423 
L 366.971605 173.571423 
" clip-path="url(#p6325d02998)" style="fill: none; stroke: #ff7f0e; stroke-width: 1.5"/>
    <path d="M 397.62383 161.827418 
L 398.487273 161.827418 
" clip-path="url(#p6325d02998)" style="fill: none; stroke: #ff7f0e; stroke-width: 1.5"/>
   </g>
   <g id="LineCollection_4">
    <path d="M 228.389014 233.465851 
L 228.389014 231.117049 
" clip-path="url(#p6325d02998)" style="fill: none; stroke: #ff7f0e; stroke-width: 1.5"/>
    <path d="M 254.724023 221.721845 
L 254.724023 219.373044 
" clip-path="url(#p6325d02998)" style="fill: none; stroke: #ff7f0e; stroke-width: 1.5"/>
    <path d="M 280.627311 209.97784 
L 280.627311 207.629039 
" clip-path="url(#p6325d02998)" style="fill: none; stroke: #ff7f0e; stroke-width: 1.5"/>
    <path d="M 306.962321 198.233834 
L 306.962321 195.885033 
" clip-path="url(#p6325d02998)" style="fill: none; stroke: #ff7f0e; stroke-width: 1.5"/>
    <path d="M 336.751103 186.489829 
L 336.751103 184.141028 
" clip-path="url(#p6325d02998)" style="fill: none; stroke: #ff7f0e; stroke-width: 1.5"/>
    <path d="M 366.539884 174.745824 
L 366.539884 172.397023 
" clip-path="url(#p6325d02998)" style="fill: none; stroke: #ff7f0e; stroke-width: 1.5"/>
    <path d="M 398.055551 163.001818 
L 398.055551 160.653017 
" clip-path="url(#p6325d02998)" style="fill: none; stroke: #ff7f0e; stroke-width: 1.5"/>
   </g>
   <g id="line2d_24">
    <path d="M 73.832727 295.488 
L 77.107705 294.124762 
L 80.382683 292.761523 
L 83.657661 291.398285 
L 86.932639 290.035046 
L 90.207617 288.671808 
L 93.482595 287.308569 
L 96.757573 285.945331 
L 100.032551 284.582092 
L 103.307529 283.218854 
L 106.582507 281.855615 
L 109.857485 280.492377 
L 113.132464 279.129138 
L 116.407442 277.7659 
L 119.68242 276.402661 
L 122.957398 275.039423 
L 126.232376 273.676185 
L 129.507354 272.312946 
L 132.782332 270.949708 
L 136.05731 269.586469 
L 139.332288 268.223231 
L 142.607266 266.859992 
L 145.882244 265.496754 
L 149.157222 264.133515 
L 152.4322 262.770277 
L 155.707178 261.407038 
L 158.982156 260.0438 
L 162.257134 258.680561 
L 165.532112 257.317323 
L 168.80709 255.954084 
L 172.082068 254.590846 
L 175.357046 253.227608 
L 178.632024 251.864369 
L 181.907002 250.501131 
L 185.18198 249.137892 
L 188.456958 247.774654 
L 191.731936 246.411415 
L 195.006914 245.048177 
L 198.281892 243.684938 
L 201.55687 242.3217 
L 204.831848 240.958461 
L 208.106826 239.595223 
L 211.381804 238.231984 
L 214.656782 236.868746 
L 217.93176 235.505507 
L 221.206738 234.142269 
L 224.481716 232.77903 
L 227.756694 231.415792 
L 231.031672 230.052554 
L 234.30665 228.689315 
L 237.581628 227.326077 
L 240.856606 225.962838 
L 244.131584 224.5996 
L 247.406562 223.236361 
L 250.68154 221.873123 
L 253.956518 220.509884 
L 257.231496 219.146646 
L 260.506474 217.783407 
L 263.781452 216.420169 
L 267.05643 215.05693 
L 270.331408 213.693692 
L 273.606386 212.330453 
L 276.881365 210.967215 
L 280.156343 209.603977 
L 283.431321 208.240738 
L 286.706299 206.8775 
L 289.981277 205.514261 
L 293.256255 204.151023 
L 296.531233 202.787784 
L 299.806211 201.424546 
L 303.081189 200.061307 
L 306.356167 198.698069 
L 309.631145 197.33483 
L 312.906123 195.971592 
L 316.181101 194.608353 
L 319.456079 193.245115 
L 322.731057 191.881876 
L 326.006035 190.518638 
L 329.281013 189.1554 
L 332.555991 187.792161 
L 335.830969 186.428923 
L 339.105947 185.065684 
L 342.380925 183.702446 
L 345.655903 182.339207 
L 348.930881 180.975969 
L 352.205859 179.61273 
L 355.480837 178.249492 
L 358.755815 176.886253 
L 362.030793 175.523015 
L 365.305771 174.159776 
L 368.580749 172.796538 
L 371.855727 171.433299 
L 375.130705 170.070061 
L 378.405683 168.706823 
L 381.680661 167.343584 
L 384.955639 165.980346 
L 388.230617 164.617107 
L 391.505595 163.253869 
L 394.780573 161.89063 
L 398.055551 160.527392 
" clip-path="url(#p6325d02998)" style="fill: none; stroke: #ff7f0e; stroke-width: 1.5; stroke-linecap: square"/>
   </g>
   <g id="LineCollection_5">
    <path d="M 79.876828 232.29145 
L 80.740271 232.29145 
" clip-path="url(#p6325d02998)" style="fill: none; stroke: #2ca02c; stroke-width: 1.5"/>
    <path d="M 101.462901 220.547445 
L 102.326344 220.547445 
" clip-path="url(#p6325d02998)" style="fill: none; stroke: #2ca02c; stroke-width: 1.5"/>
    <path d="M 119.163482 208.803439 
L 120.026925 208.803439 
" clip-path="url(#p6325d02998)" style="fill: none; stroke: #2ca02c; stroke-width: 1.5"/>
    <path d="M 133.41029 197.059434 
L 134.273733 197.059434 
" clip-path="url(#p6325d02998)" style="fill: none; stroke: #2ca02c; stroke-width: 1.5"/>
    <path d="M 152.406035 185.315428 
L 153.269478 185.315428 
" clip-path="url(#p6325d02998)" style="fill: none; stroke: #2ca02c; stroke-width: 1.5"/>
    <path d="M 167.516286 173.571423 
L 168.379729 173.571423 
" clip-path="url(#p6325d02998)" style="fill: none; stroke: #2ca02c; stroke-width: 1.5"/>
    <path d="M 184.785145 161.827418 
L 185.648588 161.827418 
" clip-path="url(#p6325d02998)" style="fill: none; stroke: #2ca02c; stroke-width: 1.5"/>
    <path d="M 202.917447 150.083412 
L 203.78089 150.083412 
" clip-path="url(#p6325d02998)" style="fill: none; stroke: #2ca02c; stroke-width: 1.5"/>
    <path d="M 219.322863 138.339407 
L 220.186306 138.339407 
" clip-path="url(#p6325d02998)" style="fill: none; stroke: #2ca02c; stroke-width: 1.5"/>
    <path d="M 236.591721 126.595402 
L 237.455164 126.595402 
" clip-path="url(#p6325d02998)" style="fill: none; stroke: #2ca02c; stroke-width: 1.5"/>
    <path d="M 252.565416 114.851396 
L 253.428859 114.851396 
" clip-path="url(#p6325d02998)" style="fill: none; stroke: #2ca02c; stroke-width: 1.5"/>
    <path d="M 270.265996 103.107391 
L 271.129439 103.107391 
" clip-path="url(#p6325d02998)" style="fill: none; stroke: #2ca02c; stroke-width: 1.5"/>
    <path d="M 287.534855 91.363385 
L 288.398298 91.363385 
" clip-path="url(#p6325d02998)" style="fill: none; stroke: #2ca02c; stroke-width: 1.5"/>
    <path d="M 303.508549 79.61938 
L 304.371992 79.61938 
" clip-path="url(#p6325d02998)" style="fill: none; stroke: #2ca02c; stroke-width: 1.5"/>
    <path d="M 325.958066 67.875375 
L 326.821509 67.875375 
" clip-path="url(#p6325d02998)" style="fill: none; stroke: #2ca02c; stroke-width: 1.5"/>
    <path d="M 344.522089 56.131369 
L 345.385532 56.131369 
" clip-path="url(#p6325d02998)" style="fill: none; stroke: #2ca02c; stroke-width: 1.5"/>
   </g>
   <g id="LineCollection_6">
    <path d="M 80.308549 233.465851 
L 80.308549 231.117049 
" clip-path="url(#p6325d02998)" style="fill: none; stroke: #2ca02c; stroke-width: 1.5"/>
    <path d="M 101.894623 221.721845 
L 101.894623 219.373044 
" clip-path="url(#p6325d02998)" style="fill: none; stroke: #2ca02c; stroke-width: 1.5"/>
    <path d="M 119.595203 209.97784 
L 119.595203 207.629039 
" clip-path="url(#p6325d02998)" style="fill: none; stroke: #2ca02c; stroke-width: 1.5"/>
    <path d="M 133.842012 198.233834 
L 133.842012 195.885033 
" clip-path="url(#p6325d02998)" style="fill: none; stroke: #2ca02c; stroke-width: 1.5"/>
    <path d="M 152.837756 186.489829 
L 152.837756 184.141028 
" clip-path="url(#p6325d02998)" style="fill: none; stroke: #2ca02c; stroke-width: 1.5"/>
    <path d="M 167.948008 174.745824 
L 167.948008 172.397023 
" clip-path="url(#p6325d02998)" style="fill: none; stroke: #2ca02c; stroke-width: 1.5"/>
    <path d="M 185.216867 163.001818 
L 185.216867 160.653017 
" clip-path="url(#p6325d02998)" style="fill: none; stroke: #2ca02c; stroke-width: 1.5"/>
    <path d="M 203.349168 151.257813 
L 203.349168 148.909012 
" clip-path="url(#p6325d02998)" style="fill: none; stroke: #2ca02c; stroke-width: 1.5"/>
    <path d="M 219.754584 139.513807 
L 219.754584 137.165006 
" clip-path="url(#p6325d02998)" style="fill: none; stroke: #2ca02c; stroke-width: 1.5"/>
    <path d="M 237.023443 127.769802 
L 237.023443 125.421001 
" clip-path="url(#p6325d02998)" style="fill: none; stroke: #2ca02c; stroke-width: 1.5"/>
    <path d="M 252.997137 116.025797 
L 252.997137 113.676996 
" clip-path="url(#p6325d02998)" style="fill: none; stroke: #2ca02c; stroke-width: 1.5"/>
    <path d="M 270.697718 104.281791 
L 270.697718 101.93299 
" clip-path="url(#p6325d02998)" style="fill: none; stroke: #2ca02c; stroke-width: 1.5"/>
    <path d="M 287.966576 92.537786 
L 287.966576 90.188985 
" clip-path="url(#p6325d02998)" style="fill: none; stroke: #2ca02c; stroke-width: 1.5"/>
    <path d="M 303.940271 80.793781 
L 303.940271 78.44498 
" clip-path="url(#p6325d02998)" style="fill: none; stroke: #2ca02c; stroke-width: 1.5"/>
    <path d="M 326.389787 69.049775 
L 326.389787 66.700974 
" clip-path="url(#p6325d02998)" style="fill: none; stroke: #2ca02c; stroke-width: 1.5"/>
    <path d="M 344.95381 57.30577 
L 344.95381 54.956969 
" clip-path="url(#p6325d02998)" style="fill: none; stroke: #2ca02c; stroke-width: 1.5"/>
   </g>
   <g id="line2d_25">
    <path d="M 73.832727 238.124227 
L 76.571324 236.260023 
L 79.309921 234.395818 
L 82.048518 232.531614 
L 84.787114 230.66741 
L 87.525711 228.803205 
L 90.264308 226.939001 
L 93.002905 225.074797 
L 95.741502 223.210592 
L 98.480098 221.346388 
L 101.218695 219.482184 
L 103.957292 217.61798 
L 106.695889 215.753775 
L 109.434486 213.889571 
L 112.173082 212.025367 
L 114.911679 210.161162 
L 117.650276 208.296958 
L 120.388873 206.432754 
L 123.12747 204.568549 
L 125.866066 202.704345 
L 128.604663 200.840141 
L 131.34326 198.975936 
L 134.081857 197.111732 
L 136.820454 195.247528 
L 139.55905 193.383323 
L 142.297647 191.519119 
L 145.036244 189.654915 
L 147.774841 187.790711 
L 150.513438 185.926506 
L 153.252034 184.062302 
L 155.990631 182.198098 
L 158.729228 180.333893 
L 161.467825 178.469689 
L 164.206422 176.605485 
L 166.945018 174.74128 
L 169.683615 172.877076 
L 172.422212 171.012872 
L 175.160809 169.148667 
L 177.899406 167.284463 
L 180.638002 165.420259 
L 183.376599 163.556054 
L 186.115196 161.69185 
L 188.853793 159.827646 
L 191.59239 157.963442 
L 194.330986 156.099237 
L 197.069583 154.235033 
L 199.80818 152.370829 
L 202.546777 150.506624 
L 205.285374 148.64242 
L 208.02397 146.778216 
L 210.762567 144.914011 
L 213.501164 143.049807 
L 216.239761 141.185603 
L 218.978358 139.321398 
L 221.716954 137.457194 
L 224.455551 135.59299 
L 227.194148 133.728785 
L 229.932745 131.864581 
L 232.671342 130.000377 
L 235.409938 128.136173 
L 238.148535 126.271968 
L 240.887132 124.407764 
L 243.625729 122.54356 
L 246.364326 120.679355 
L 249.102922 118.815151 
L 251.841519 116.950947 
L 254.580116 115.086742 
L 257.318713 113.222538 
L 260.05731 111.358334 
L 262.795906 109.494129 
L 265.534503 107.629925 
L 268.2731 105.765721 
L 271.011697 103.901516 
L 273.750294 102.037312 
L 276.48889 100.173108 
L 279.227487 98.308904 
L 281.966084 96.444699 
L 284.704681 94.580495 
L 287.443278 92.716291 
L 290.181874 90.852086 
L 292.920471 88.987882 
L 295.659068 87.123678 
L 298.397665 85.259473 
L 301.136262 83.395269 
L 303.874858 81.531065 
L 306.613455 79.66686 
L 309.352052 77.802656 
L 312.090649 75.938452 
L 314.829246 74.074247 
L 317.567842 72.210043 
L 320.306439 70.345839 
L 323.045036 68.481635 
L 325.783633 66.61743 
L 328.52223 64.753226 
L 331.260826 62.889022 
L 333.999423 61.024817 
L 336.73802 59.160613 
L 339.476617 57.296409 
L 342.215214 55.432204 
L 344.95381 53.568 
" clip-path="url(#p6325d02998)" style="fill: none; stroke: #2ca02c; stroke-width: 1.5; stroke-linecap: square"/>
   </g>
   <g id="LineCollection_7">
    <path d="M 82.035435 232.29145 
L 82.898878 232.29145 
" clip-path="url(#p6325d02998)" style="fill: none; stroke: #d62728; stroke-width: 1.5"/>
    <path d="M 150.247427 226.419447 
L 151.11087 226.419447 
" clip-path="url(#p6325d02998)" style="fill: none; stroke: #d62728; stroke-width: 1.5"/>
    <path d="M 227.525571 220.547445 
L 228.389014 220.547445 
" clip-path="url(#p6325d02998)" style="fill: none; stroke: #d62728; stroke-width: 1.5"/>
    <path d="M 300.486499 214.675442 
L 301.349942 214.675442 
" clip-path="url(#p6325d02998)" style="fill: none; stroke: #d62728; stroke-width: 1.5"/>
    <path d="M 373.879149 208.803439 
L 374.742592 208.803439 
" clip-path="url(#p6325d02998)" style="fill: none; stroke: #d62728; stroke-width: 1.5"/>
   </g>
   <g id="LineCollection_8">
    <path d="M 82.467157 233.465851 
L 82.467157 231.117049 
" clip-path="url(#p6325d02998)" style="fill: none; stroke: #d62728; stroke-width: 1.5"/>
    <path d="M 150.679149 227.593848 
L 150.679149 225.245047 
" clip-path="url(#p6325d02998)" style="fill: none; stroke: #d62728; stroke-width: 1.5"/>
    <path d="M 227.957292 221.721845 
L 227.957292 219.373044 
" clip-path="url(#p6325d02998)" style="fill: none; stroke: #d62728; stroke-width: 1.5"/>
    <path d="M 300.918221 215.849842 
L 300.918221 213.501041 
" clip-path="url(#p6325d02998)" style="fill: none; stroke: #d62728; stroke-width: 1.5"/>
    <path d="M 374.31087 209.97784 
L 374.31087 207.629039 
" clip-path="url(#p6325d02998)" style="fill: none; stroke: #d62728; stroke-width: 1.5"/>
   </g>
   <g id="line2d_26">
    <path d="M 73.832727 232.820021 
L 76.86786 232.577253 
L 79.902993 232.334484 
L 82.938126 232.091716 
L 85.973258 231.848947 
L 89.008391 231.606178 
L 92.043524 231.36341 
L 95.078657 231.120641 
L 98.113789 230.877873 
L 101.148922 230.635104 
L 104.184055 230.392336 
L 107.219188 230.149567 
L 110.25432 229.906799 
L 113.289453 229.66403 
L 116.324586 229.421262 
L 119.359719 229.178493 
L 122.394851 228.935725 
L 125.429984 228.692956 
L 128.465117 228.450188 
L 131.50025 228.207419 
L 134.535382 227.964651 
L 137.570515 227.721882 
L 140.605648 227.479114 
L 143.640781 227.236345 
L 146.675913 226.993577 
L 149.711046 226.750808 
L 152.746179 226.50804 
L 155.781312 226.265271 
L 158.816445 226.022503 
L 161.851577 225.779734 
L 164.88671 225.536966 
L 167.921843 225.294197 
L 170.956976 225.051428 
L 173.992108 224.80866 
L 177.027241 224.565891 
L 180.062374 224.323123 
L 183.097507 224.080354 
L 186.132639 223.837586 
L 189.167772 223.594817 
L 192.202905 223.352049 
L 195.238038 223.10928 
L 198.27317 222.866512 
L 201.308303 222.623743 
L 204.343436 222.380975 
L 207.378569 222.138206 
L 210.413701 221.895438 
L 213.448834 221.652669 
L 216.483967 221.409901 
L 219.5191 221.167132 
L 222.554232 220.924364 
L 225.589365 220.681595 
L 228.624498 220.438827 
L 231.659631 220.196058 
L 234.694763 219.95329 
L 237.729896 219.710521 
L 240.765029 219.467753 
L 243.800162 219.224984 
L 246.835295 218.982216 
L 249.870427 218.739447 
L 252.90556 218.496678 
L 255.940693 218.25391 
L 258.975826 218.011141 
L 262.010958 217.768373 
L 265.046091 217.525604 
L 268.081224 217.282836 
L 271.116357 217.040067 
L 274.151489 216.797299 
L 277.186622 216.55453 
L 280.221755 216.311762 
L 283.256888 216.068993 
L 286.29202 215.826225 
L 289.327153 215.583456 
L 292.362286 215.340688 
L 295.397419 215.097919 
L 298.432551 214.855151 
L 301.467684 214.612382 
L 304.502817 214.369614 
L 307.53795 214.126845 
L 310.573082 213.884077 
L 313.608215 213.641308 
L 316.643348 213.39854 
L 319.678481 213.155771 
L 322.713614 212.913003 
L 325.748746 212.670234 
L 328.783879 212.427466 
L 331.819012 212.184697 
L 334.854145 211.941928 
L 337.889277 211.69916 
L 340.92441 211.456391 
L 343.959543 211.213623 
L 346.994676 210.970854 
L 350.029808 210.728086 
L 353.064941 210.485317 
L 356.100074 210.242549 
L 359.135207 209.99978 
L 362.170339 209.757012 
L 365.205472 209.514243 
L 368.240605 209.271475 
L 371.275738 209.028706 
L 374.31087 208.785938 
" clip-path="url(#p6325d02998)" style="fill: none; stroke: #d62728; stroke-width: 1.5; stroke-linecap: square"/>
   </g>
   <g id="line2d_27">
    <defs>
     <path id="m4d17157978" d="M 0 1.5 
C 0.397805 1.5 0.77937 1.341951 1.06066 1.06066 
C 1.341951 0.77937 1.5 0.397805 1.5 0 
C 1.5 -0.397805 1.341951 -0.77937 1.06066 -1.06066 
C 0.77937 -1.341951 0.397805 -1.5 0 -1.5 
C -0.397805 -1.5 -0.77937 -1.341951 -1.06066 -1.06066 
C -1.341951 -0.77937 -1.5 -0.397805 -1.5 0 
C -1.5 0.397805 -1.341951 0.77937 -1.06066 1.06066 
C -0.77937 1.341951 -0.397805 1.5 0 1.5 
z
" style="stroke: #1f77b4"/>
    </defs>
    <g clip-path="url(#p6325d02998)">
     <use xlink:href="#m4d17157978" x="80.740271" y="232.29145" style="fill: #1f77b4; stroke: #1f77b4"/>
     <use xlink:href="#m4d17157978" x="104.484952" y="220.547445" style="fill: #1f77b4; stroke: #1f77b4"/>
     <use xlink:href="#m4d17157978" x="130.819961" y="208.803439" style="fill: #1f77b4; stroke: #1f77b4"/>
     <use xlink:href="#m4d17157978" x="159.313578" y="197.059434" style="fill: #1f77b4; stroke: #1f77b4"/>
     <use xlink:href="#m4d17157978" x="183.489981" y="185.315428" style="fill: #1f77b4; stroke: #1f77b4"/>
     <use xlink:href="#m4d17157978" x="208.529826" y="173.571423" style="fill: #1f77b4; stroke: #1f77b4"/>
     <use xlink:href="#m4d17157978" x="237.455164" y="161.827418" style="fill: #1f77b4; stroke: #1f77b4"/>
     <use xlink:href="#m4d17157978" x="260.336402" y="150.083412" style="fill: #1f77b4; stroke: #1f77b4"/>
     <use xlink:href="#m4d17157978" x="289.693462" y="138.339407" style="fill: #1f77b4; stroke: #1f77b4"/>
     <use xlink:href="#m4d17157978" x="314.301586" y="126.595402" style="fill: #1f77b4; stroke: #1f77b4"/>
     <use xlink:href="#m4d17157978" x="341.500039" y="114.851396" style="fill: #1f77b4; stroke: #1f77b4"/>
     <use xlink:href="#m4d17157978" x="369.993656" y="103.107391" style="fill: #1f77b4; stroke: #1f77b4"/>
     <use xlink:href="#m4d17157978" x="395.033501" y="91.363385" style="fill: #1f77b4; stroke: #1f77b4"/>
    </g>
   </g>
   <g id="line2d_28">
    <defs>
     <path id="m2f1b41501b" d="M 0 1.5 
C 0.397805 1.5 0.77937 1.341951 1.06066 1.06066 
C 1.341951 0.77937 1.5 0.397805 1.5 0 
C 1.5 -0.397805 1.341951 -0.77937 1.06066 -1.06066 
C 0.77937 -1.341951 0.397805 -1.5 0 -1.5 
C -0.397805 -1.5 -0.77937 -1.341951 -1.06066 -1.06066 
C -1.341951 -0.77937 -1.5 -0.397805 -1.5 0 
C -1.5 0.397805 -1.341951 0.77937 -1.06066 1.06066 
C -0.77937 1.341951 -0.397805 1.5 0 1.5 
z
" style="stroke: #ff7f0e"/>
    </defs>
    <g clip-path="url(#p6325d02998)">
     <use xlink:href="#m2f1b41501b" x="228.389014" y="232.29145" style="fill: #ff7f0e; stroke: #ff7f0e"/>
     <use xlink:href="#m2f1b41501b" x="254.724023" y="220.547445" style="fill: #ff7f0e; stroke: #ff7f0e"/>
     <use xlink:href="#m2f1b41501b" x="280.627311" y="208.803439" style="fill: #ff7f0e; stroke: #ff7f0e"/>
     <use xlink:href="#m2f1b41501b" x="306.962321" y="197.059434" style="fill: #ff7f0e; stroke: #ff7f0e"/>
     <use xlink:href="#m2f1b41501b" x="336.751103" y="185.315428" style="fill: #ff7f0e; stroke: #ff7f0e"/>
     <use xlink:href="#m2f1b41501b" x="366.539884" y="173.571423" style="fill: #ff7f0e; stroke: #ff7f0e"/>
     <use xlink:href="#m2f1b41501b" x="398.055551" y="161.827418" style="fill: #ff7f0e; stroke: #ff7f0e"/>
    </g>
   </g>
   <g id="line2d_29">
    <defs>
     <path id="m2554117334" d="M 0 1.5 
C 0.397805 1.5 0.77937 1.341951 1.06066 1.06066 
C 1.341951 0.77937 1.5 0.397805 1.5 0 
C 1.5 -0.397805 1.341951 -0.77937 1.06066 -1.06066 
C 0.77937 -1.341951 0.397805 -1.5 0 -1.5 
C -0.397805 -1.5 -0.77937 -1.341951 -1.06066 -1.06066 
C -1.341951 -0.77937 -1.5 -0.397805 -1.5 0 
C -1.5 0.397805 -1.341951 0.77937 -1.06066 1.06066 
C -0.77937 1.341951 -0.397805 1.5 0 1.5 
z
" style="stroke: #2ca02c"/>
    </defs>
    <g clip-path="url(#p6325d02998)">
     <use xlink:href="#m2554117334" x="80.308549" y="232.29145" style="fill: #2ca02c; stroke: #2ca02c"/>
     <use xlink:href="#m2554117334" x="101.894623" y="220.547445" style="fill: #2ca02c; stroke: #2ca02c"/>
     <use xlink:href="#m2554117334" x="119.595203" y="208.803439" style="fill: #2ca02c; stroke: #2ca02c"/>
     <use xlink:href="#m2554117334" x="133.842012" y="197.059434" style="fill: #2ca02c; stroke: #2ca02c"/>
     <use xlink:href="#m2554117334" x="152.837756" y="185.315428" style="fill: #2ca02c; stroke: #2ca02c"/>
     <use xlink:href="#m2554117334" x="167.948008" y="173.571423" style="fill: #2ca02c; stroke: #2ca02c"/>
     <use xlink:href="#m2554117334" x="185.216867" y="161.827418" style="fill: #2ca02c; stroke: #2ca02c"/>
     <use xlink:href="#m2554117334" x="203.349168" y="150.083412" style="fill: #2ca02c; stroke: #2ca02c"/>
     <use xlink:href="#m2554117334" x="219.754584" y="138.339407" style="fill: #2ca02c; stroke: #2ca02c"/>
     <use xlink:href="#m2554117334" x="237.023443" y="126.595402" style="fill: #2ca02c; stroke: #2ca02c"/>
     <use xlink:href="#m2554117334" x="252.997137" y="114.851396" style="fill: #2ca02c; stroke: #2ca02c"/>
     <use xlink:href="#m2554117334" x="270.697718" y="103.107391" style="fill: #2ca02c; stroke: #2ca02c"/>
     <use xlink:href="#m2554117334" x="287.966576" y="91.363385" style="fill: #2ca02c; stroke: #2ca02c"/>
     <use xlink:href="#m2554117334" x="303.940271" y="79.61938" style="fill: #2ca02c; stroke: #2ca02c"/>
     <use xlink:href="#m2554117334" x="326.389787" y="67.875375" style="fill: #2ca02c; stroke: #2ca02c"/>
     <use xlink:href="#m2554117334" x="344.95381" y="56.131369" style="fill: #2ca02c; stroke: #2ca02c"/>
    </g>
   </g>
   <g id="line2d_30">
    <defs>
     <path id="mc1efaa7d03" d="M 0 1.5 
C 0.397805 1.5 0.77937 1.341951 1.06066 1.06066 
C 1.341951 0.77937 1.5 0.397805 1.5 0 
C 1.5 -0.397805 1.341951 -0.77937 1.06066 -1.06066 
C 0.77937 -1.341951 0.397805 -1.5 0 -1.5 
C -0.397805 -1.5 -0.77937 -1.341951 -1.06066 -1.06066 
C -1.341951 -0.77937 -1.5 -0.397805 -1.5 0 
C -1.5 0.397805 -1.341951 0.77937 -1.06066 1.06066 
C -0.77937 1.341951 -0.397805 1.5 0 1.5 
z
" style="stroke: #d62728"/>
    </defs>
    <g clip-path="url(#p6325d02998)">
     <use xlink:href="#mc1efaa7d03" x="82.467157" y="232.29145" style="fill: #d62728; stroke: #d62728"/>
     <use xlink:href="#mc1efaa7d03" x="150.679149" y="226.419447" style="fill: #d62728; stroke: #d62728"/>
     <use xlink:href="#mc1efaa7d03" x="227.957292" y="220.547445" style="fill: #d62728; stroke: #d62728"/>
     <use xlink:href="#mc1efaa7d03" x="300.918221" y="214.675442" style="fill: #d62728; stroke: #d62728"/>
     <use xlink:href="#mc1efaa7d03" x="374.31087" y="208.803439" style="fill: #d62728; stroke: #d62728"/>
    </g>
   </g>
   <g id="patch_3">
    <path d="M 57.6 307.584 
L 57.6 41.472 
" style="fill: none; stroke: #000000; stroke-width: 0.8; stroke-linejoin: miter; stroke-linecap: square"/>
   </g>
   <g id="patch_4">
    <path d="M 414.72 307.584 
L 414.72 41.472 
" style="fill: none; stroke: #000000; stroke-width: 0.8; stroke-linejoin: miter; stroke-linecap: square"/>
   </g>
   <g id="patch_5">
    <path d="M 57.6 307.584 
L 414.72 307.584 
" style="fill: none; stroke: #000000; stroke-width: 0.8; stroke-linejoin: miter; stroke-linecap: square"/>
   </g>
   <g id="patch_6">
    <path d="M 57.6 41.472 
L 414.72 41.472 
" style="fill: none; stroke: #000000; stroke-width: 0.8; stroke-linejoin: miter; stroke-linecap: square"/>
   </g>
   <g id="legend_1">
    <g id="patch_7">
     <path d="M 64.6 108.1845 
L 174.532813 108.1845 
Q 176.532813 108.1845 176.532813 106.1845 
L 176.532813 48.472 
Q 176.532813 46.472 174.532813 46.472 
L 64.6 46.472 
Q 62.6 46.472 62.6 48.472 
L 62.6 106.1845 
Q 62.6 108.1845 64.6 108.1845 
z
" style="fill: #ffffff; opacity: 0.8; stroke: #cccccc; stroke-linejoin: miter"/>
    </g>
    <g id="LineCollection_9">
     <path d="M 71.6 54.570438 
L 81.6 54.570438 
" style="fill: none; stroke: #1f77b4; stroke-width: 1.5"/>
    </g>
    <g id="LineCollection_10">
     <path d="M 76.6 59.570438 
L 76.6 49.570438 
" style="fill: none; stroke: #1f77b4; stroke-width: 1.5"/>
    </g>
    <g id="line2d_31"/>
    <g id="line2d_32">
     <g>
      <use xlink:href="#m4d17157978" x="76.6" y="54.570438" style="fill: #1f77b4; stroke: #1f77b4"/>
     </g>
    </g>
    <g id="text_14">
     <!-- Air -->
     <g transform="translate(94.6 58.070438) scale(0.1 -0.1)">
      <defs>
       <path id="DejaVuSans-41" d="M 2188 4044 
L 1331 1722 
L 3047 1722 
L 2188 4044 
z
M 1831 4666 
L 2547 4666 
L 4325 0 
L 3669 0 
L 3244 1197 
L 1141 1197 
L 716 0 
L 50 0 
L 1831 4666 
z
" transform="scale(0.015625)"/>
      </defs>
      <use xlink:href="#DejaVuSans-41"/>
      <use xlink:href="#DejaVuSans-69" transform="translate(68.408203 0)"/>
      <use xlink:href="#DejaVuSans-72" transform="translate(96.191406 0)"/>
     </g>
    </g>
    <g id="LineCollection_11">
     <path d="M 71.6 69.248563 
L 81.6 69.248563 
" style="fill: none; stroke: #ff7f0e; stroke-width: 1.5"/>
    </g>
    <g id="LineCollection_12">
     <path d="M 76.6 74.248563 
L 76.6 64.248563 
" style="fill: none; stroke: #ff7f0e; stroke-width: 1.5"/>
    </g>
    <g id="line2d_33"/>
    <g id="line2d_34">
     <g>
      <use xlink:href="#m2f1b41501b" x="76.6" y="69.248563" style="fill: #ff7f0e; stroke: #ff7f0e"/>
     </g>
    </g>
    <g id="text_15">
     <!-- Mix (CO2 + He) -->
     <g transform="translate(94.6 72.748563) scale(0.1 -0.1)">
      <defs>
       <path id="DejaVuSans-4d" d="M 628 4666 
L 1569 4666 
L 2759 1491 
L 3956 4666 
L 4897 4666 
L 4897 0 
L 4281 0 
L 4281 4097 
L 3078 897 
L 2444 897 
L 1241 4097 
L 1241 0 
L 628 0 
L 628 4666 
z
" transform="scale(0.015625)"/>
       <path id="DejaVuSans-78" d="M 3513 3500 
L 2247 1797 
L 3578 0 
L 2900 0 
L 1881 1375 
L 863 0 
L 184 0 
L 1544 1831 
L 300 3500 
L 978 3500 
L 1906 2253 
L 2834 3500 
L 3513 3500 
z
" transform="scale(0.015625)"/>
       <path id="DejaVuSans-28" d="M 1984 4856 
Q 1566 4138 1362 3434 
Q 1159 2731 1159 2009 
Q 1159 1288 1364 580 
Q 1569 -128 1984 -844 
L 1484 -844 
Q 1016 -109 783 600 
Q 550 1309 550 2009 
Q 550 2706 781 3412 
Q 1013 4119 1484 4856 
L 1984 4856 
z
" transform="scale(0.015625)"/>
       <path id="DejaVuSans-43" d="M 4122 4306 
L 4122 3641 
Q 3803 3938 3442 4084 
Q 3081 4231 2675 4231 
Q 1875 4231 1450 3742 
Q 1025 3253 1025 2328 
Q 1025 1406 1450 917 
Q 1875 428 2675 428 
Q 3081 428 3442 575 
Q 3803 722 4122 1019 
L 4122 359 
Q 3791 134 3420 21 
Q 3050 -91 2638 -91 
Q 1578 -91 968 557 
Q 359 1206 359 2328 
Q 359 3453 968 4101 
Q 1578 4750 2638 4750 
Q 3056 4750 3426 4639 
Q 3797 4528 4122 4306 
z
" transform="scale(0.015625)"/>
       <path id="DejaVuSans-4f" d="M 2522 4238 
Q 1834 4238 1429 3725 
Q 1025 3213 1025 2328 
Q 1025 1447 1429 934 
Q 1834 422 2522 422 
Q 3209 422 3611 934 
Q 4013 1447 4013 2328 
Q 4013 3213 3611 3725 
Q 3209 4238 2522 4238 
z
M 2522 4750 
Q 3503 4750 4090 4092 
Q 4678 3434 4678 2328 
Q 4678 1225 4090 567 
Q 3503 -91 2522 -91 
Q 1538 -91 948 565 
Q 359 1222 359 2328 
Q 359 3434 948 4092 
Q 1538 4750 2522 4750 
z
" transform="scale(0.015625)"/>
       <path id="DejaVuSans-2b" d="M 2944 4013 
L 2944 2272 
L 4684 2272 
L 4684 1741 
L 2944 1741 
L 2944 0 
L 2419 0 
L 2419 1741 
L 678 1741 
L 678 2272 
L 2419 2272 
L 2419 4013 
L 2944 4013 
z
" transform="scale(0.015625)"/>
       <path id="DejaVuSans-48" d="M 628 4666 
L 1259 4666 
L 1259 2753 
L 3553 2753 
L 3553 4666 
L 4184 4666 
L 4184 0 
L 3553 0 
L 3553 2222 
L 1259 2222 
L 1259 0 
L 628 0 
L 628 4666 
z
" transform="scale(0.015625)"/>
       <path id="DejaVuSans-29" d="M 513 4856 
L 1013 4856 
Q 1481 4119 1714 3412 
Q 1947 2706 1947 2009 
Q 1947 1309 1714 600 
Q 1481 -109 1013 -844 
L 513 -844 
Q 928 -128 1133 580 
Q 1338 1288 1338 2009 
Q 1338 2731 1133 3434 
Q 928 4138 513 4856 
z
" transform="scale(0.015625)"/>
      </defs>
      <use xlink:href="#DejaVuSans-4d"/>
      <use xlink:href="#DejaVuSans-69" transform="translate(86.279297 0)"/>
      <use xlink:href="#DejaVuSans-78" transform="translate(114.0625 0)"/>
      <use xlink:href="#DejaVuSans-20" transform="translate(173.242188 0)"/>
      <use xlink:href="#DejaVuSans-28" transform="translate(205.029297 0)"/>
      <use xlink:href="#DejaVuSans-43" transform="translate(244.042969 0)"/>
      <use xlink:href="#DejaVuSans-4f" transform="translate(313.867188 0)"/>
      <use xlink:href="#DejaVuSans-32" transform="translate(392.578125 0)"/>
      <use xlink:href="#DejaVuSans-20" transform="translate(456.201172 0)"/>
      <use xlink:href="#DejaVuSans-2b" transform="translate(487.988281 0)"/>
      <use xlink:href="#DejaVuSans-20" transform="translate(571.777344 0)"/>
      <use xlink:href="#DejaVuSans-48" transform="translate(603.564453 0)"/>
      <use xlink:href="#DejaVuSans-65" transform="translate(678.759766 0)"/>
      <use xlink:href="#DejaVuSans-29" transform="translate(740.283203 0)"/>
     </g>
    </g>
    <g id="LineCollection_13">
     <path d="M 71.6 83.926688 
L 81.6 83.926688 
" style="fill: none; stroke: #2ca02c; stroke-width: 1.5"/>
    </g>
    <g id="LineCollection_14">
     <path d="M 76.6 88.926688 
L 76.6 78.926688 
" style="fill: none; stroke: #2ca02c; stroke-width: 1.5"/>
    </g>
    <g id="line2d_35"/>
    <g id="line2d_36">
     <g>
      <use xlink:href="#m2554117334" x="76.6" y="83.926688" style="fill: #2ca02c; stroke: #2ca02c"/>
     </g>
    </g>
    <g id="text_16">
     <!-- CO2 -->
     <g transform="translate(94.6 87.426688) scale(0.1 -0.1)">
      <use xlink:href="#DejaVuSans-43"/>
      <use xlink:href="#DejaVuSans-4f" transform="translate(69.824219 0)"/>
      <use xlink:href="#DejaVuSans-32" transform="translate(148.535156 0)"/>
     </g>
    </g>
    <g id="LineCollection_15">
     <path d="M 71.6 98.604813 
L 81.6 98.604813 
" style="fill: none; stroke: #d62728; stroke-width: 1.5"/>
    </g>
    <g id="LineCollection_16">
     <path d="M 76.6 103.604813 
L 76.6 93.604813 
" style="fill: none; stroke: #d62728; stroke-width: 1.5"/>
    </g>
    <g id="line2d_37"/>
    <g id="line2d_38">
     <g>
      <use xlink:href="#mc1efaa7d03" x="76.6" y="98.604813" style="fill: #d62728; stroke: #d62728"/>
     </g>
    </g>
    <g id="text_17">
     <!-- He -->
     <g transform="translate(94.6 102.104813) scale(0.1 -0.1)">
      <use xlink:href="#DejaVuSans-48"/>
      <use xlink:href="#DejaVuSans-65" transform="translate(75.195312 0)"/>
     </g>
    </g>
   </g>
  </g>
 </g>
 <defs>
  <clipPath id="p6325d02998">
   <rect x="57.6" y="41.472" width="357.12" height="266.112"/>
  </clipPath>
 </defs>
</svg>
