<?xml version="1.0" encoding="utf-8" standalone="no"?>
<!DOCTYPE svg PUBLIC "-//W3C//DTD SVG 1.1//EN"
  "http://www.w3.org/Graphics/SVG/1.1/DTD/svg11.dtd">
<svg xmlns:xlink="http://www.w3.org/1999/xlink" width="460.8pt" height="345.6pt" viewBox="0 0 460.8 345.6" xmlns="http://www.w3.org/2000/svg" version="1.1">
 <metadata>
  <rdf:RDF xmlns:dc="http://purl.org/dc/elements/1.1/" xmlns:cc="http://creativecommons.org/ns#" xmlns:rdf="http://www.w3.org/1999/02/22-rdf-syntax-ns#">
   <cc:Work>
    <dc:type rdf:resource="http://purl.org/dc/dcmitype/StillImage"/>
    <dc:date>2025-11-30T11:27:15.983717</dc:date>
    <dc:format>image/svg+xml</dc:format>
    <dc:creator>
     <cc:Agent>
      <dc:title>Matplotlib v3.10.7, https://matplotlib.org/</dc:title>
     </cc:Agent>
    </dc:creator>
   </cc:Work>
  </rdf:RDF>
 </metadata>
 <defs>
  <style type="text/css">*{stroke-linejoin: round; stroke-linecap: butt}</style>
 </defs>
 <g id="figure_1">
  <g id="patch_1">
   <path d="M 0 345.6 
L 460.8 345.6 
L 460.8 0 
L 0 0 
z
" style="fill: #ffffff"/>
  </g>
  <g id="axes_1">
   <g id="patch_2">
    <path d="M 57.6 307.584 
L 414.72 307.584 
L 414.72 41.472 
L 57.6 41.472 
z
" style="fill: #ffffff"/>
   </g>
   <g id="matplotlib.axis_1">
    <g id="xtick_1">
     <g id="line2d_1">
      <path d="M 73.832727 307.584 
L 73.832727 41.472 
" clip-path="url(#p94311c2ac4)" style="fill: none; stroke: #b0b0b0; stroke-width: 0.8; stroke-linecap: square"/>
     </g>
     <g id="line2d_2">
      <defs>
       <path id="m3362c6661e" d="M 0 0 
L 0 3.5 
" style="stroke: #000000; stroke-width: 0.8"/>
      </defs>
      <g>
       <use xlink:href="#m3362c6661e" x="73.832727" y="307.584" style="stroke: #000000; stroke-width: 0.8"/>
      </g>
     </g>
     <g id="text_1">
      <!-- 0 -->
      <g transform="translate(70.651477 322.182437) scale(0.1 -0.1)">
       <defs>
        <path id="DejaVuSans-30" d="M 2034 4250 
Q 1547 4250 1301 3770 
Q 1056 3291 1056 2328 
Q 1056 1369 1301 889 
Q 1547 409 2034 409 
Q 2525 409 2770 889 
Q 3016 1369 3016 2328 
Q 3016 3291 2770 3770 
Q 2525 4250 2034 4250 
z
M 2034 4750 
Q 2819 4750 3233 4129 
Q 3647 3509 3647 2328 
Q 3647 1150 3233 529 
Q 2819 -91 2034 -91 
Q 1250 -91 836 529 
Q 422 1150 422 2328 
Q 422 3509 836 4129 
Q 1250 4750 2034 4750 
z
" transform="scale(0.015625)"/>
       </defs>
       <use xlink:href="#DejaVuSans-30"/>
      </g>
     </g>
    </g>
    <g id="xtick_2">
     <g id="line2d_3">
      <path d="M 125.610276 307.584 
L 125.610276 41.472 
" clip-path="url(#p94311c2ac4)" style="fill: none; stroke: #b0b0b0; stroke-width: 0.8; stroke-linecap: square"/>
     </g>
     <g id="line2d_4">
      <g>
       <use xlink:href="#m3362c6661e" x="125.610276" y="307.584" style="stroke: #000000; stroke-width: 0.8"/>
      </g>
     </g>
     <g id="text_2">
      <!-- 2 -->
      <g transform="translate(122.429026 322.182437) scale(0.1 -0.1)">
       <defs>
        <path id="DejaVuSans-32" d="M 1228 531 
L 3431 531 
L 3431 0 
L 469 0 
L 469 531 
Q 828 903 1448 1529 
Q 2069 2156 2228 2338 
Q 2531 2678 2651 2914 
Q 2772 3150 2772 3378 
Q 2772 3750 2511 3984 
Q 2250 4219 1831 4219 
Q 1534 4219 1204 4116 
Q 875 4013 500 3803 
L 500 4441 
Q 881 4594 1212 4672 
Q 1544 4750 1819 4750 
Q 2544 4750 2975 4387 
Q 3406 4025 3406 3419 
Q 3406 3131 3298 2873 
Q 3191 2616 2906 2266 
Q 2828 2175 2409 1742 
Q 1991 1309 1228 531 
z
" transform="scale(0.015625)"/>
       </defs>
       <use xlink:href="#DejaVuSans-32"/>
      </g>
     </g>
    </g>
    <g id="xtick_3">
     <g id="line2d_5">
      <path d="M 177.387825 307.584 
L 177.387825 41.472 
" clip-path="url(#p94311c2ac4)" style="fill: none; stroke: #b0b0b0; stroke-width: 0.8; stroke-linecap: square"/>
     </g>
     <g id="line2d_6">
      <g>
       <use xlink:href="#m3362c6661e" x="177.387825" y="307.584" style="stroke: #000000; stroke-width: 0.8"/>
      </g>
     </g>
     <g id="text_3">
      <!-- 4 -->
      <g transform="translate(174.206575 322.182437) scale(0.1 -0.1)">
       <defs>
        <path id="DejaVuSans-34" d="M 2419 4116 
L 825 1625 
L 2419 1625 
L 2419 4116 
z
M 2253 4666 
L 3047 4666 
L 3047 1625 
L 3713 1625 
L 3713 1100 
L 3047 1100 
L 3047 0 
L 2419 0 
L 2419 1100 
L 313 1100 
L 313 1709 
L 2253 4666 
z
" transform="scale(0.015625)"/>
       </defs>
       <use xlink:href="#DejaVuSans-34"/>
      </g>
     </g>
    </g>
    <g id="xtick_4">
     <g id="line2d_7">
      <path d="M 229.165374 307.584 
L 229.165374 41.472 
" clip-path="url(#p94311c2ac4)" style="fill: none; stroke: #b0b0b0; stroke-width: 0.8; stroke-linecap: square"/>
     </g>
     <g id="line2d_8">
      <g>
       <use xlink:href="#m3362c6661e" x="229.165374" y="307.584" style="stroke: #000000; stroke-width: 0.8"/>
      </g>
     </g>
     <g id="text_4">
      <!-- 6 -->
      <g transform="translate(225.984124 322.182437) scale(0.1 -0.1)">
       <defs>
        <path id="DejaVuSans-36" d="M 2113 2584 
Q 1688 2584 1439 2293 
Q 1191 2003 1191 1497 
Q 1191 994 1439 701 
Q 1688 409 2113 409 
Q 2538 409 2786 701 
Q 3034 994 3034 1497 
Q 3034 2003 2786 2293 
Q 2538 2584 2113 2584 
z
M 3366 4563 
L 3366 3988 
Q 3128 4100 2886 4159 
Q 2644 4219 2406 4219 
Q 1781 4219 1451 3797 
Q 1122 3375 1075 2522 
Q 1259 2794 1537 2939 
Q 1816 3084 2150 3084 
Q 2853 3084 3261 2657 
Q 3669 2231 3669 1497 
Q 3669 778 3244 343 
Q 2819 -91 2113 -91 
Q 1303 -91 875 529 
Q 447 1150 447 2328 
Q 447 3434 972 4092 
Q 1497 4750 2381 4750 
Q 2619 4750 2861 4703 
Q 3103 4656 3366 4563 
z
" transform="scale(0.015625)"/>
       </defs>
       <use xlink:href="#DejaVuSans-36"/>
      </g>
     </g>
    </g>
    <g id="xtick_5">
     <g id="line2d_9">
      <path d="M 280.942923 307.584 
L 280.942923 41.472 
" clip-path="url(#p94311c2ac4)" style="fill: none; stroke: #b0b0b0; stroke-width: 0.8; stroke-linecap: square"/>
     </g>
     <g id="line2d_10">
      <g>
       <use xlink:href="#m3362c6661e" x="280.942923" y="307.584" style="stroke: #000000; stroke-width: 0.8"/>
      </g>
     </g>
     <g id="text_5">
      <!-- 8 -->
      <g transform="translate(277.761673 322.182437) scale(0.1 -0.1)">
       <defs>
        <path id="DejaVuSans-38" d="M 2034 2216 
Q 1584 2216 1326 1975 
Q 1069 1734 1069 1313 
Q 1069 891 1326 650 
Q 1584 409 2034 409 
Q 2484 409 2743 651 
Q 3003 894 3003 1313 
Q 3003 1734 2745 1975 
Q 2488 2216 2034 2216 
z
M 1403 2484 
Q 997 2584 770 2862 
Q 544 3141 544 3541 
Q 544 4100 942 4425 
Q 1341 4750 2034 4750 
Q 2731 4750 3128 4425 
Q 3525 4100 3525 3541 
Q 3525 3141 3298 2862 
Q 3072 2584 2669 2484 
Q 3125 2378 3379 2068 
Q 3634 1759 3634 1313 
Q 3634 634 3220 271 
Q 2806 -91 2034 -91 
Q 1263 -91 848 271 
Q 434 634 434 1313 
Q 434 1759 690 2068 
Q 947 2378 1403 2484 
z
M 1172 3481 
Q 1172 3119 1398 2916 
Q 1625 2713 2034 2713 
Q 2441 2713 2670 2916 
Q 2900 3119 2900 3481 
Q 2900 3844 2670 4047 
Q 2441 4250 2034 4250 
Q 1625 4250 1398 4047 
Q 1172 3844 1172 3481 
z
" transform="scale(0.015625)"/>
       </defs>
       <use xlink:href="#DejaVuSans-38"/>
      </g>
     </g>
    </g>
    <g id="xtick_6">
     <g id="line2d_11">
      <path d="M 332.720472 307.584 
L 332.720472 41.472 
" clip-path="url(#p94311c2ac4)" style="fill: none; stroke: #b0b0b0; stroke-width: 0.8; stroke-linecap: square"/>
     </g>
     <g id="line2d_12">
      <g>
       <use xlink:href="#m3362c6661e" x="332.720472" y="307.584" style="stroke: #000000; stroke-width: 0.8"/>
      </g>
     </g>
     <g id="text_6">
      <!-- 10 -->
      <g transform="translate(326.357972 322.182437) scale(0.1 -0.1)">
       <defs>
        <path id="DejaVuSans-31" d="M 794 531 
L 1825 531 
L 1825 4091 
L 703 3866 
L 703 4441 
L 1819 4666 
L 2450 4666 
L 2450 531 
L 3481 531 
L 3481 0 
L 794 0 
L 794 531 
z
" transform="scale(0.015625)"/>
       </defs>
       <use xlink:href="#DejaVuSans-31"/>
       <use xlink:href="#DejaVuSans-30" transform="translate(63.623047 0)"/>
      </g>
     </g>
    </g>
    <g id="xtick_7">
     <g id="line2d_13">
      <path d="M 384.498021 307.584 
L 384.498021 41.472 
" clip-path="url(#p94311c2ac4)" style="fill: none; stroke: #b0b0b0; stroke-width: 0.8; stroke-linecap: square"/>
     </g>
     <g id="line2d_14">
      <g>
       <use xlink:href="#m3362c6661e" x="384.498021" y="307.584" style="stroke: #000000; stroke-width: 0.8"/>
      </g>
     </g>
     <g id="text_7">
      <!-- 12 -->
      <g transform="translate(378.135521 322.182437) scale(0.1 -0.1)">
       <use xlink:href="#DejaVuSans-31"/>
       <use xlink:href="#DejaVuSans-32" transform="translate(63.623047 0)"/>
      </g>
     </g>
    </g>
    <g id="text_8">
     <!-- Frequency [1/s] -->
     <g transform="translate(197.369375 335.860562) scale(0.1 -0.1)">
      <defs>
       <path id="DejaVuSans-46" d="M 628 4666 
L 3309 4666 
L 3309 4134 
L 1259 4134 
L 1259 2759 
L 3109 2759 
L 3109 2228 
L 1259 2228 
L 1259 0 
L 628 0 
L 628 4666 
z
" transform="scale(0.015625)"/>
       <path id="DejaVuSans-72" d="M 2631 2963 
Q 2534 3019 2420 3045 
Q 2306 3072 2169 3072 
Q 1681 3072 1420 2755 
Q 1159 2438 1159 1844 
L 1159 0 
L 581 0 
L 581 3500 
L 1159 3500 
L 1159 2956 
Q 1341 3275 1631 3429 
Q 1922 3584 2338 3584 
Q 2397 3584 2469 3576 
Q 2541 3569 2628 3553 
L 2631 2963 
z
" transform="scale(0.015625)"/>
       <path id="DejaVuSans-65" d="M 3597 1894 
L 3597 1613 
L 953 1613 
Q 991 1019 1311 708 
Q 1631 397 2203 397 
Q 2534 397 2845 478 
Q 3156 559 3463 722 
L 3463 178 
Q 3153 47 2828 -22 
Q 2503 -91 2169 -91 
Q 1331 -91 842 396 
Q 353 884 353 1716 
Q 353 2575 817 3079 
Q 1281 3584 2069 3584 
Q 2775 3584 3186 3129 
Q 3597 2675 3597 1894 
z
M 3022 2063 
Q 3016 2534 2758 2815 
Q 2500 3097 2075 3097 
Q 1594 3097 1305 2825 
Q 1016 2553 972 2059 
L 3022 2063 
z
" transform="scale(0.015625)"/>
       <path id="DejaVuSans-71" d="M 947 1747 
Q 947 1113 1208 752 
Q 1469 391 1925 391 
Q 2381 391 2643 752 
Q 2906 1113 2906 1747 
Q 2906 2381 2643 2742 
Q 2381 3103 1925 3103 
Q 1469 3103 1208 2742 
Q 947 2381 947 1747 
z
M 2906 525 
Q 2725 213 2448 61 
Q 2172 -91 1784 -91 
Q 1150 -91 751 415 
Q 353 922 353 1747 
Q 353 2572 751 3078 
Q 1150 3584 1784 3584 
Q 2172 3584 2448 3432 
Q 2725 3281 2906 2969 
L 2906 3500 
L 3481 3500 
L 3481 -1331 
L 2906 -1331 
L 2906 525 
z
" transform="scale(0.015625)"/>
       <path id="DejaVuSans-75" d="M 544 1381 
L 544 3500 
L 1119 3500 
L 1119 1403 
Q 1119 906 1312 657 
Q 1506 409 1894 409 
Q 2359 409 2629 706 
Q 2900 1003 2900 1516 
L 2900 3500 
L 3475 3500 
L 3475 0 
L 2900 0 
L 2900 538 
Q 2691 219 2414 64 
Q 2138 -91 1772 -91 
Q 1169 -91 856 284 
Q 544 659 544 1381 
z
M 1991 3584 
L 1991 3584 
z
" transform="scale(0.015625)"/>
       <path id="DejaVuSans-6e" d="M 3513 2113 
L 3513 0 
L 2938 0 
L 2938 2094 
Q 2938 2591 2744 2837 
Q 2550 3084 2163 3084 
Q 1697 3084 1428 2787 
Q 1159 2491 1159 1978 
L 1159 0 
L 581 0 
L 581 3500 
L 1159 3500 
L 1159 2956 
Q 1366 3272 1645 3428 
Q 1925 3584 2291 3584 
Q 2894 3584 3203 3211 
Q 3513 2838 3513 2113 
z
" transform="scale(0.015625)"/>
       <path id="DejaVuSans-63" d="M 3122 3366 
L 3122 2828 
Q 2878 2963 2633 3030 
Q 2388 3097 2138 3097 
Q 1578 3097 1268 2742 
Q 959 2388 959 1747 
Q 959 1106 1268 751 
Q 1578 397 2138 397 
Q 2388 397 2633 464 
Q 2878 531 3122 666 
L 3122 134 
Q 2881 22 2623 -34 
Q 2366 -91 2075 -91 
Q 1284 -91 818 406 
Q 353 903 353 1747 
Q 353 2603 823 3093 
Q 1294 3584 2113 3584 
Q 2378 3584 2631 3529 
Q 2884 3475 3122 3366 
z
" transform="scale(0.015625)"/>
       <path id="DejaVuSans-79" d="M 2059 -325 
Q 1816 -950 1584 -1140 
Q 1353 -1331 966 -1331 
L 506 -1331 
L 506 -850 
L 844 -850 
Q 1081 -850 1212 -737 
Q 1344 -625 1503 -206 
L 1606 56 
L 191 3500 
L 800 3500 
L 1894 763 
L 2988 3500 
L 3597 3500 
L 2059 -325 
z
" transform="scale(0.015625)"/>
       <path id="DejaVuSans-20" transform="scale(0.015625)"/>
       <path id="DejaVuSans-5b" d="M 550 4863 
L 1875 4863 
L 1875 4416 
L 1125 4416 
L 1125 -397 
L 1875 -397 
L 1875 -844 
L 550 -844 
L 550 4863 
z
" transform="scale(0.015625)"/>
       <path id="DejaVuSans-2f" d="M 1625 4666 
L 2156 4666 
L 531 -594 
L 0 -594 
L 1625 4666 
z
" transform="scale(0.015625)"/>
       <path id="DejaVuSans-73" d="M 2834 3397 
L 2834 2853 
Q 2591 2978 2328 3040 
Q 2066 3103 1784 3103 
Q 1356 3103 1142 2972 
Q 928 2841 928 2578 
Q 928 2378 1081 2264 
Q 1234 2150 1697 2047 
L 1894 2003 
Q 2506 1872 2764 1633 
Q 3022 1394 3022 966 
Q 3022 478 2636 193 
Q 2250 -91 1575 -91 
Q 1294 -91 989 -36 
Q 684 19 347 128 
L 347 722 
Q 666 556 975 473 
Q 1284 391 1588 391 
Q 1994 391 2212 530 
Q 2431 669 2431 922 
Q 2431 1156 2273 1281 
Q 2116 1406 1581 1522 
L 1381 1569 
Q 847 1681 609 1914 
Q 372 2147 372 2553 
Q 372 3047 722 3315 
Q 1072 3584 1716 3584 
Q 2034 3584 2315 3537 
Q 2597 3491 2834 3397 
z
" transform="scale(0.015625)"/>
       <path id="DejaVuSans-5d" d="M 1947 4863 
L 1947 -844 
L 622 -844 
L 622 -397 
L 1369 -397 
L 1369 4416 
L 622 4416 
L 622 4863 
L 1947 4863 
z
" transform="scale(0.015625)"/>
      </defs>
      <use xlink:href="#DejaVuSans-46"/>
      <use xlink:href="#DejaVuSans-72" transform="translate(50.269531 0)"/>
      <use xlink:href="#DejaVuSans-65" transform="translate(89.132812 0)"/>
      <use xlink:href="#DejaVuSans-71" transform="translate(150.65625 0)"/>
      <use xlink:href="#DejaVuSans-75" transform="translate(214.132812 0)"/>
      <use xlink:href="#DejaVuSans-65" transform="translate(277.511719 0)"/>
      <use xlink:href="#DejaVuSans-6e" transform="translate(339.035156 0)"/>
      <use xlink:href="#DejaVuSans-63" transform="translate(402.414062 0)"/>
      <use xlink:href="#DejaVuSans-79" transform="translate(457.394531 0)"/>
      <use xlink:href="#DejaVuSans-20" transform="translate(516.574219 0)"/>
      <use xlink:href="#DejaVuSans-5b" transform="translate(548.361328 0)"/>
      <use xlink:href="#DejaVuSans-31" transform="translate(587.375 0)"/>
      <use xlink:href="#DejaVuSans-2f" transform="translate(650.998047 0)"/>
      <use xlink:href="#DejaVuSans-73" transform="translate(684.689453 0)"/>
      <use xlink:href="#DejaVuSans-5d" transform="translate(736.789062 0)"/>
     </g>
    </g>
   </g>
   <g id="matplotlib.axis_2">
    <g id="ytick_1">
     <g id="line2d_15">
      <path d="M 57.6 299.795215 
L 414.72 299.795215 
" clip-path="url(#p94311c2ac4)" style="fill: none; stroke: #b0b0b0; stroke-width: 0.8; stroke-linecap: square"/>
     </g>
     <g id="line2d_16">
      <defs>
       <path id="m1a9e7c005a" d="M 0 0 
L -3.5 0 
" style="stroke: #000000; stroke-width: 0.8"/>
      </defs>
      <g>
       <use xlink:href="#m1a9e7c005a" x="57.6" y="299.795215" style="stroke: #000000; stroke-width: 0.8"/>
      </g>
     </g>
     <g id="text_9">
      <!-- 0 -->
      <g transform="translate(44.2375 303.594434) scale(0.1 -0.1)">
       <use xlink:href="#DejaVuSans-30"/>
      </g>
     </g>
    </g>
    <g id="ytick_2">
     <g id="line2d_17">
      <path d="M 57.6 247.685079 
L 414.72 247.685079 
" clip-path="url(#p94311c2ac4)" style="fill: none; stroke: #b0b0b0; stroke-width: 0.8; stroke-linecap: square"/>
     </g>
     <g id="line2d_18">
      <g>
       <use xlink:href="#m1a9e7c005a" x="57.6" y="247.685079" style="stroke: #000000; stroke-width: 0.8"/>
      </g>
     </g>
     <g id="text_10">
      <!-- 2 -->
      <g transform="translate(44.2375 251.484298) scale(0.1 -0.1)">
       <use xlink:href="#DejaVuSans-32"/>
      </g>
     </g>
    </g>
    <g id="ytick_3">
     <g id="line2d_19">
      <path d="M 57.6 195.574943 
L 414.72 195.574943 
" clip-path="url(#p94311c2ac4)" style="fill: none; stroke: #b0b0b0; stroke-width: 0.8; stroke-linecap: square"/>
     </g>
     <g id="line2d_20">
      <g>
       <use xlink:href="#m1a9e7c005a" x="57.6" y="195.574943" style="stroke: #000000; stroke-width: 0.8"/>
      </g>
     </g>
     <g id="text_11">
      <!-- 4 -->
      <g transform="translate(44.2375 199.374162) scale(0.1 -0.1)">
       <use xlink:href="#DejaVuSans-34"/>
      </g>
     </g>
    </g>
    <g id="ytick_4">
     <g id="line2d_21">
      <path d="M 57.6 143.464807 
L 414.72 143.464807 
" clip-path="url(#p94311c2ac4)" style="fill: none; stroke: #b0b0b0; stroke-width: 0.8; stroke-linecap: square"/>
     </g>
     <g id="line2d_22">
      <g>
       <use xlink:href="#m1a9e7c005a" x="57.6" y="143.464807" style="stroke: #000000; stroke-width: 0.8"/>
      </g>
     </g>
     <g id="text_12">
      <!-- 6 -->
      <g transform="translate(44.2375 147.264026) scale(0.1 -0.1)">
       <use xlink:href="#DejaVuSans-36"/>
      </g>
     </g>
    </g>
    <g id="ytick_5">
     <g id="line2d_23">
      <path d="M 57.6 91.354672 
L 414.72 91.354672 
" clip-path="url(#p94311c2ac4)" style="fill: none; stroke: #b0b0b0; stroke-width: 0.8; stroke-linecap: square"/>
     </g>
     <g id="line2d_24">
      <g>
       <use xlink:href="#m1a9e7c005a" x="57.6" y="91.354672" style="stroke: #000000; stroke-width: 0.8"/>
      </g>
     </g>
     <g id="text_13">
      <!-- 8 -->
      <g transform="translate(44.2375 95.15389) scale(0.1 -0.1)">
       <use xlink:href="#DejaVuSans-38"/>
      </g>
     </g>
    </g>
    <g id="text_14">
     <!-- Amplitude ratio [a.u.] -->
     <g transform="translate(38.157812 228.169406) rotate(-90) scale(0.1 -0.1)">
      <defs>
       <path id="DejaVuSans-41" d="M 2188 4044 
L 1331 1722 
L 3047 1722 
L 2188 4044 
z
M 1831 4666 
L 2547 4666 
L 4325 0 
L 3669 0 
L 3244 1197 
L 1141 1197 
L 716 0 
L 50 0 
L 1831 4666 
z
" transform="scale(0.015625)"/>
       <path id="DejaVuSans-6d" d="M 3328 2828 
Q 3544 3216 3844 3400 
Q 4144 3584 4550 3584 
Q 5097 3584 5394 3201 
Q 5691 2819 5691 2113 
L 5691 0 
L 5113 0 
L 5113 2094 
Q 5113 2597 4934 2840 
Q 4756 3084 4391 3084 
Q 3944 3084 3684 2787 
Q 3425 2491 3425 1978 
L 3425 0 
L 2847 0 
L 2847 2094 
Q 2847 2600 2669 2842 
Q 2491 3084 2119 3084 
Q 1678 3084 1418 2786 
Q 1159 2488 1159 1978 
L 1159 0 
L 581 0 
L 581 3500 
L 1159 3500 
L 1159 2956 
Q 1356 3278 1631 3431 
Q 1906 3584 2284 3584 
Q 2666 3584 2933 3390 
Q 3200 3197 3328 2828 
z
" transform="scale(0.015625)"/>
       <path id="DejaVuSans-70" d="M 1159 525 
L 1159 -1331 
L 581 -1331 
L 581 3500 
L 1159 3500 
L 1159 2969 
Q 1341 3281 1617 3432 
Q 1894 3584 2278 3584 
Q 2916 3584 3314 3078 
Q 3713 2572 3713 1747 
Q 3713 922 3314 415 
Q 2916 -91 2278 -91 
Q 1894 -91 1617 61 
Q 1341 213 1159 525 
z
M 3116 1747 
Q 3116 2381 2855 2742 
Q 2594 3103 2138 3103 
Q 1681 3103 1420 2742 
Q 1159 2381 1159 1747 
Q 1159 1113 1420 752 
Q 1681 391 2138 391 
Q 2594 391 2855 752 
Q 3116 1113 3116 1747 
z
" transform="scale(0.015625)"/>
       <path id="DejaVuSans-6c" d="M 603 4863 
L 1178 4863 
L 1178 0 
L 603 0 
L 603 4863 
z
" transform="scale(0.015625)"/>
       <path id="DejaVuSans-69" d="M 603 3500 
L 1178 3500 
L 1178 0 
L 603 0 
L 603 3500 
z
M 603 4863 
L 1178 4863 
L 1178 4134 
L 603 4134 
L 603 4863 
z
" transform="scale(0.015625)"/>
       <path id="DejaVuSans-74" d="M 1172 4494 
L 1172 3500 
L 2356 3500 
L 2356 3053 
L 1172 3053 
L 1172 1153 
Q 1172 725 1289 603 
Q 1406 481 1766 481 
L 2356 481 
L 2356 0 
L 1766 0 
Q 1100 0 847 248 
Q 594 497 594 1153 
L 594 3053 
L 172 3053 
L 172 3500 
L 594 3500 
L 594 4494 
L 1172 4494 
z
" transform="scale(0.015625)"/>
       <path id="DejaVuSans-64" d="M 2906 2969 
L 2906 4863 
L 3481 4863 
L 3481 0 
L 2906 0 
L 2906 525 
Q 2725 213 2448 61 
Q 2172 -91 1784 -91 
Q 1150 -91 751 415 
Q 353 922 353 1747 
Q 353 2572 751 3078 
Q 1150 3584 1784 3584 
Q 2172 3584 2448 3432 
Q 2725 3281 2906 2969 
z
M 947 1747 
Q 947 1113 1208 752 
Q 1469 391 1925 391 
Q 2381 391 2643 752 
Q 2906 1113 2906 1747 
Q 2906 2381 2643 2742 
Q 2381 3103 1925 3103 
Q 1469 3103 1208 2742 
Q 947 2381 947 1747 
z
" transform="scale(0.015625)"/>
       <path id="DejaVuSans-61" d="M 2194 1759 
Q 1497 1759 1228 1600 
Q 959 1441 959 1056 
Q 959 750 1161 570 
Q 1363 391 1709 391 
Q 2188 391 2477 730 
Q 2766 1069 2766 1631 
L 2766 1759 
L 2194 1759 
z
M 3341 1997 
L 3341 0 
L 2766 0 
L 2766 531 
Q 2569 213 2275 61 
Q 1981 -91 1556 -91 
Q 1019 -91 701 211 
Q 384 513 384 1019 
Q 384 1609 779 1909 
Q 1175 2209 1959 2209 
L 2766 2209 
L 2766 2266 
Q 2766 2663 2505 2880 
Q 2244 3097 1772 3097 
Q 1472 3097 1187 3025 
Q 903 2953 641 2809 
L 641 3341 
Q 956 3463 1253 3523 
Q 1550 3584 1831 3584 
Q 2591 3584 2966 3190 
Q 3341 2797 3341 1997 
z
" transform="scale(0.015625)"/>
       <path id="DejaVuSans-6f" d="M 1959 3097 
Q 1497 3097 1228 2736 
Q 959 2375 959 1747 
Q 959 1119 1226 758 
Q 1494 397 1959 397 
Q 2419 397 2687 759 
Q 2956 1122 2956 1747 
Q 2956 2369 2687 2733 
Q 2419 3097 1959 3097 
z
M 1959 3584 
Q 2709 3584 3137 3096 
Q 3566 2609 3566 1747 
Q 3566 888 3137 398 
Q 2709 -91 1959 -91 
Q 1206 -91 779 398 
Q 353 888 353 1747 
Q 353 2609 779 3096 
Q 1206 3584 1959 3584 
z
" transform="scale(0.015625)"/>
       <path id="DejaVuSans-2e" d="M 684 794 
L 1344 794 
L 1344 0 
L 684 0 
L 684 794 
z
" transform="scale(0.015625)"/>
      </defs>
      <use xlink:href="#DejaVuSans-41"/>
      <use xlink:href="#DejaVuSans-6d" transform="translate(68.408203 0)"/>
      <use xlink:href="#DejaVuSans-70" transform="translate(165.820312 0)"/>
      <use xlink:href="#DejaVuSans-6c" transform="translate(229.296875 0)"/>
      <use xlink:href="#DejaVuSans-69" transform="translate(257.080078 0)"/>
      <use xlink:href="#DejaVuSans-74" transform="translate(284.863281 0)"/>
      <use xlink:href="#DejaVuSans-75" transform="translate(324.072266 0)"/>
      <use xlink:href="#DejaVuSans-64" transform="translate(387.451172 0)"/>
      <use xlink:href="#DejaVuSans-65" transform="translate(450.927734 0)"/>
      <use xlink:href="#DejaVuSans-20" transform="translate(512.451172 0)"/>
      <use xlink:href="#DejaVuSans-72" transform="translate(544.238281 0)"/>
      <use xlink:href="#DejaVuSans-61" transform="translate(585.351562 0)"/>
      <use xlink:href="#DejaVuSans-74" transform="translate(646.630859 0)"/>
      <use xlink:href="#DejaVuSans-69" transform="translate(685.839844 0)"/>
      <use xlink:href="#DejaVuSans-6f" transform="translate(713.623047 0)"/>
      <use xlink:href="#DejaVuSans-20" transform="translate(774.804688 0)"/>
      <use xlink:href="#DejaVuSans-5b" transform="translate(806.591797 0)"/>
      <use xlink:href="#DejaVuSans-61" transform="translate(845.605469 0)"/>
      <use xlink:href="#DejaVuSans-2e" transform="translate(906.884766 0)"/>
      <use xlink:href="#DejaVuSans-75" transform="translate(938.671875 0)"/>
      <use xlink:href="#DejaVuSans-2e" transform="translate(1002.050781 0)"/>
      <use xlink:href="#DejaVuSans-5d" transform="translate(1033.837891 0)"/>
     </g>
    </g>
   </g>
   <g id="LineCollection_1">
    <path d="M 142.445834 282.838842 
L 142.475568 282.838842 
" clip-path="url(#p94311c2ac4)" style="fill: none; stroke: #1f77b4; stroke-width: 1.5"/>
    <path d="M 157.286545 280.430946 
L 157.317341 280.430946 
" clip-path="url(#p94311c2ac4)" style="fill: none; stroke: #1f77b4; stroke-width: 1.5"/>
    <path d="M 174.764587 275.88026 
L 174.798431 275.88026 
" clip-path="url(#p94311c2ac4)" style="fill: none; stroke: #1f77b4; stroke-width: 1.5"/>
    <path d="M 187.3036 270.871523 
L 187.332941 270.871523 
" clip-path="url(#p94311c2ac4)" style="fill: none; stroke: #1f77b4; stroke-width: 1.5"/>
    <path d="M 206.939775 253.302893 
L 206.972073 253.302893 
" clip-path="url(#p94311c2ac4)" style="fill: none; stroke: #1f77b4; stroke-width: 1.5"/>
    <path d="M 210.069351 247.972637 
L 210.097899 247.972637 
" clip-path="url(#p94311c2ac4)" style="fill: none; stroke: #1f77b4; stroke-width: 1.5"/>
    <path d="M 217.399616 224.479193 
L 217.425989 224.479193 
" clip-path="url(#p94311c2ac4)" style="fill: none; stroke: #1f77b4; stroke-width: 1.5"/>
    <path d="M 221.049737 201.806728 
L 221.076936 201.806728 
" clip-path="url(#p94311c2ac4)" style="fill: none; stroke: #1f77b4; stroke-width: 1.5"/>
    <path d="M 228.7729 53.623333 
L 228.804469 53.623333 
" clip-path="url(#p94311c2ac4)" style="fill: none; stroke: #1f77b4; stroke-width: 1.5"/>
    <path d="M 236.756873 80.936981 
L 236.787011 80.936981 
" clip-path="url(#p94311c2ac4)" style="fill: none; stroke: #1f77b4; stroke-width: 1.5"/>
    <path d="M 243.652972 195.598141 
L 243.685193 195.598141 
" clip-path="url(#p94311c2ac4)" style="fill: none; stroke: #1f77b4; stroke-width: 1.5"/>
    <path d="M 248.270707 226.299435 
L 248.301318 226.299435 
" clip-path="url(#p94311c2ac4)" style="fill: none; stroke: #1f77b4; stroke-width: 1.5"/>
    <path d="M 221.049737 201.806728 
L 221.076936 201.806728 
" clip-path="url(#p94311c2ac4)" style="fill: none; stroke: #1f77b4; stroke-width: 1.5"/>
    <path d="M 256.240099 251.486702 
L 256.271258 251.486702 
" clip-path="url(#p94311c2ac4)" style="fill: none; stroke: #1f77b4; stroke-width: 1.5"/>
    <path d="M 276.077395 275.407696 
L 276.108394 275.407696 
" clip-path="url(#p94311c2ac4)" style="fill: none; stroke: #1f77b4; stroke-width: 1.5"/>
   </g>
   <g id="LineCollection_2">
    <path d="M 142.460701 282.876527 
L 142.460701 282.801158 
" clip-path="url(#p94311c2ac4)" style="fill: none; stroke: #1f77b4; stroke-width: 1.5"/>
    <path d="M 157.301943 280.485347 
L 157.301943 280.376544 
" clip-path="url(#p94311c2ac4)" style="fill: none; stroke: #1f77b4; stroke-width: 1.5"/>
    <path d="M 174.781509 275.907392 
L 174.781509 275.853127 
" clip-path="url(#p94311c2ac4)" style="fill: none; stroke: #1f77b4; stroke-width: 1.5"/>
    <path d="M 187.318271 270.903048 
L 187.318271 270.839997 
" clip-path="url(#p94311c2ac4)" style="fill: none; stroke: #1f77b4; stroke-width: 1.5"/>
    <path d="M 206.955924 253.334215 
L 206.955924 253.271571 
" clip-path="url(#p94311c2ac4)" style="fill: none; stroke: #1f77b4; stroke-width: 1.5"/>
    <path d="M 210.083625 248.001171 
L 210.083625 247.944103 
" clip-path="url(#p94311c2ac4)" style="fill: none; stroke: #1f77b4; stroke-width: 1.5"/>
    <path d="M 217.412802 224.509177 
L 217.412802 224.449209 
" clip-path="url(#p94311c2ac4)" style="fill: none; stroke: #1f77b4; stroke-width: 1.5"/>
    <path d="M 221.063337 201.848791 
L 221.063337 201.764664 
" clip-path="url(#p94311c2ac4)" style="fill: none; stroke: #1f77b4; stroke-width: 1.5"/>
    <path d="M 228.788685 53.678666 
L 228.788685 53.568 
" clip-path="url(#p94311c2ac4)" style="fill: none; stroke: #1f77b4; stroke-width: 1.5"/>
    <path d="M 236.771942 80.979529 
L 236.771942 80.894433 
" clip-path="url(#p94311c2ac4)" style="fill: none; stroke: #1f77b4; stroke-width: 1.5"/>
    <path d="M 243.669083 195.634687 
L 243.669083 195.561594 
" clip-path="url(#p94311c2ac4)" style="fill: none; stroke: #1f77b4; stroke-width: 1.5"/>
    <path d="M 248.286012 226.330604 
L 248.286012 226.268267 
" clip-path="url(#p94311c2ac4)" style="fill: none; stroke: #1f77b4; stroke-width: 1.5"/>
    <path d="M 221.063337 201.848791 
L 221.063337 201.764664 
" clip-path="url(#p94311c2ac4)" style="fill: none; stroke: #1f77b4; stroke-width: 1.5"/>
    <path d="M 256.255679 251.52199 
L 256.255679 251.451415 
" clip-path="url(#p94311c2ac4)" style="fill: none; stroke: #1f77b4; stroke-width: 1.5"/>
    <path d="M 276.092895 275.44159 
L 276.092895 275.373802 
" clip-path="url(#p94311c2ac4)" style="fill: none; stroke: #1f77b4; stroke-width: 1.5"/>
   </g>
   <g id="line2d_25">
    <path d="M 73.832727 286.863707 
L 88.774307 286.753402 
L 103.228662 286.426061 
L 116.383748 285.911478 
L 128.239567 285.230739 
L 138.63371 284.418234 
L 147.728584 283.4926 
L 155.6866 282.468079 
L 162.670164 281.353925 
L 168.841686 280.152233 
L 174.363575 278.854301 
L 179.235829 277.485223 
L 183.620858 276.024639 
L 187.518661 274.496902 
L 191.091648 272.858244 
L 194.339817 271.121575 
L 197.26317 269.308621 
L 200.024114 267.327018 
L 202.460241 265.310833 
L 204.73396 263.151055 
L 206.84527 260.851932 
L 208.794172 258.42376 
L 210.743073 255.636772 
L 212.529567 252.696364 
L 214.31606 249.301429 
L 215.940145 245.728921 
L 217.564229 241.581859 
L 219.025906 237.240653 
L 220.487582 232.1807 
L 221.78685 226.933943 
L 223.086118 220.809567 
L 224.385385 213.590563 
L 225.684653 204.994563 
L 226.821513 196.059716 
L 227.958372 185.493317 
L 229.095231 172.954361 
L 230.232091 158.118091 
L 231.531358 138.190702 
L 234.617119 88.031586 
L 235.266753 81.798911 
L 235.59157 79.983344 
L 235.916387 79.147707 
L 236.078796 79.111524 
L 236.241204 79.332175 
L 236.566021 80.535191 
L 236.890838 82.7135 
L 237.378064 87.625881 
L 238.027697 96.627906 
L 239.164557 116.186238 
L 241.275867 152.953038 
L 242.575135 171.814606 
L 243.874403 187.406444 
L 245.17367 200.192253 
L 246.472938 210.715584 
L 247.772206 219.450867 
L 249.071474 226.7762 
L 250.53315 233.692518 
L 251.994827 239.505536 
L 253.456503 244.448264 
L 255.080588 249.130484 
L 256.704672 253.132609 
L 258.491166 256.908693 
L 260.277659 260.157883 
L 262.226561 263.219416 
L 264.175462 265.872643 
L 266.286772 268.373036 
L 268.560491 270.71181 
L 270.996618 272.886766 
L 273.595154 274.900469 
L 276.356098 276.758752 
L 279.441859 278.557853 
L 282.690029 280.195369 
L 286.263015 281.751922 
L 290.323227 283.271054 
L 294.708256 284.673804 
L 299.742919 286.043596 
L 305.264807 287.313467 
L 311.598738 288.537252 
L 318.744711 289.687738 
L 327.027543 290.788904 
L 336.609643 291.829127 
L 347.653419 292.797978 
L 360.646098 293.70809 
L 376.074903 294.558091 
L 394.589469 295.346563 
L 398.487273 295.488 
L 398.487273 295.488 
" clip-path="url(#p94311c2ac4)" style="fill: none; stroke: #ff7f0e; stroke-width: 1.5; stroke-linecap: square"/>
   </g>
   <g id="line2d_26">
    <defs>
     <path id="m491a068cd8" d="M 0 1.5 
C 0.397805 1.5 0.77937 1.341951 1.06066 1.06066 
C 1.341951 0.77937 1.5 0.397805 1.5 0 
C 1.5 -0.397805 1.341951 -0.77937 1.06066 -1.06066 
C 0.77937 -1.341951 0.397805 -1.5 0 -1.5 
C -0.397805 -1.5 -0.77937 -1.341951 -1.06066 -1.06066 
C -1.341951 -0.77937 -1.5 -0.397805 -1.5 0 
C -1.5 0.397805 -1.341951 0.77937 -1.06066 1.06066 
C -0.77937 1.341951 -0.397805 1.5 0 1.5 
z
" style="stroke: #1f77b4"/>
    </defs>
    <g clip-path="url(#p94311c2ac4)">
     <use xlink:href="#m491a068cd8" x="142.460701" y="282.838842" style="fill: #1f77b4; stroke: #1f77b4"/>
     <use xlink:href="#m491a068cd8" x="157.301943" y="280.430946" style="fill: #1f77b4; stroke: #1f77b4"/>
     <use xlink:href="#m491a068cd8" x="174.781509" y="275.88026" style="fill: #1f77b4; stroke: #1f77b4"/>
     <use xlink:href="#m491a068cd8" x="187.318271" y="270.871523" style="fill: #1f77b4; stroke: #1f77b4"/>
     <use xlink:href="#m491a068cd8" x="206.955924" y="253.302893" style="fill: #1f77b4; stroke: #1f77b4"/>
     <use xlink:href="#m491a068cd8" x="210.083625" y="247.972637" style="fill: #1f77b4; stroke: #1f77b4"/>
     <use xlink:href="#m491a068cd8" x="217.412802" y="224.479193" style="fill: #1f77b4; stroke: #1f77b4"/>
     <use xlink:href="#m491a068cd8" x="221.063337" y="201.806728" style="fill: #1f77b4; stroke: #1f77b4"/>
     <use xlink:href="#m491a068cd8" x="228.788685" y="53.623333" style="fill: #1f77b4; stroke: #1f77b4"/>
     <use xlink:href="#m491a068cd8" x="236.771942" y="80.936981" style="fill: #1f77b4; stroke: #1f77b4"/>
     <use xlink:href="#m491a068cd8" x="243.669083" y="195.598141" style="fill: #1f77b4; stroke: #1f77b4"/>
     <use xlink:href="#m491a068cd8" x="248.286012" y="226.299435" style="fill: #1f77b4; stroke: #1f77b4"/>
     <use xlink:href="#m491a068cd8" x="221.063337" y="201.806728" style="fill: #1f77b4; stroke: #1f77b4"/>
     <use xlink:href="#m491a068cd8" x="256.255679" y="251.486702" style="fill: #1f77b4; stroke: #1f77b4"/>
     <use xlink:href="#m491a068cd8" x="276.092895" y="275.407696" style="fill: #1f77b4; stroke: #1f77b4"/>
    </g>
   </g>
   <g id="patch_3">
    <path d="M 57.6 307.584 
L 57.6 41.472 
" style="fill: none; stroke: #000000; stroke-width: 0.8; stroke-linejoin: miter; stroke-linecap: square"/>
   </g>
   <g id="patch_4">
    <path d="M 414.72 307.584 
L 414.72 41.472 
" style="fill: none; stroke: #000000; stroke-width: 0.8; stroke-linejoin: miter; stroke-linecap: square"/>
   </g>
   <g id="patch_5">
    <path d="M 57.6 307.584 
L 414.72 307.584 
" style="fill: none; stroke: #000000; stroke-width: 0.8; stroke-linejoin: miter; stroke-linecap: square"/>
   </g>
   <g id="patch_6">
    <path d="M 57.6 41.472 
L 414.72 41.472 
" style="fill: none; stroke: #000000; stroke-width: 0.8; stroke-linejoin: miter; stroke-linecap: square"/>
   </g>
   <g id="text_15">
    <!-- 2.6 -->
    <g transform="translate(129.738201 281.175092) scale(0.08 -0.08)">
     <use xlink:href="#DejaVuSans-32"/>
     <use xlink:href="#DejaVuSans-2e" transform="translate(63.623047 0)"/>
     <use xlink:href="#DejaVuSans-36" transform="translate(95.410156 0)"/>
    </g>
   </g>
   <g id="text_16">
    <!-- 3.0 -->
    <g transform="translate(144.579443 278.767196) scale(0.08 -0.08)">
     <defs>
      <path id="DejaVuSans-33" d="M 2597 2516 
Q 3050 2419 3304 2112 
Q 3559 1806 3559 1356 
Q 3559 666 3084 287 
Q 2609 -91 1734 -91 
Q 1441 -91 1130 -33 
Q 819 25 488 141 
L 488 750 
Q 750 597 1062 519 
Q 1375 441 1716 441 
Q 2309 441 2620 675 
Q 2931 909 2931 1356 
Q 2931 1769 2642 2001 
Q 2353 2234 1838 2234 
L 1294 2234 
L 1294 2753 
L 1863 2753 
Q 2328 2753 2575 2939 
Q 2822 3125 2822 3475 
Q 2822 3834 2567 4026 
Q 2313 4219 1838 4219 
Q 1578 4219 1281 4162 
Q 984 4106 628 3988 
L 628 4550 
Q 988 4650 1302 4700 
Q 1616 4750 1894 4750 
Q 2613 4750 3031 4423 
Q 3450 4097 3450 3541 
Q 3450 3153 3228 2886 
Q 3006 2619 2597 2516 
z
" transform="scale(0.015625)"/>
     </defs>
     <use xlink:href="#DejaVuSans-33"/>
     <use xlink:href="#DejaVuSans-2e" transform="translate(63.623047 0)"/>
     <use xlink:href="#DejaVuSans-30" transform="translate(95.410156 0)"/>
    </g>
   </g>
   <g id="text_17">
    <!-- 3.6 -->
    <g transform="translate(162.059009 274.21651) scale(0.08 -0.08)">
     <use xlink:href="#DejaVuSans-33"/>
     <use xlink:href="#DejaVuSans-2e" transform="translate(63.623047 0)"/>
     <use xlink:href="#DejaVuSans-36" transform="translate(95.410156 0)"/>
    </g>
   </g>
   <g id="text_18">
    <!-- 4.0 -->
    <g transform="translate(174.595771 269.207773) scale(0.08 -0.08)">
     <use xlink:href="#DejaVuSans-34"/>
     <use xlink:href="#DejaVuSans-2e" transform="translate(63.623047 0)"/>
     <use xlink:href="#DejaVuSans-30" transform="translate(95.410156 0)"/>
    </g>
   </g>
   <g id="text_19">
    <!-- 4.3 -->
    <g transform="translate(194.233424 251.639143) scale(0.08 -0.08)">
     <use xlink:href="#DejaVuSans-34"/>
     <use xlink:href="#DejaVuSans-2e" transform="translate(63.623047 0)"/>
     <use xlink:href="#DejaVuSans-33" transform="translate(95.410156 0)"/>
    </g>
   </g>
   <g id="text_20">
    <!-- 4.6 -->
    <g transform="translate(197.361125 246.308887) scale(0.08 -0.08)">
     <use xlink:href="#DejaVuSans-34"/>
     <use xlink:href="#DejaVuSans-2e" transform="translate(63.623047 0)"/>
     <use xlink:href="#DejaVuSans-36" transform="translate(95.410156 0)"/>
    </g>
   </g>
   <g id="text_21">
    <!-- 4.8 -->
    <g transform="translate(204.690302 222.815443) scale(0.08 -0.08)">
     <use xlink:href="#DejaVuSans-34"/>
     <use xlink:href="#DejaVuSans-2e" transform="translate(63.623047 0)"/>
     <use xlink:href="#DejaVuSans-38" transform="translate(95.410156 0)"/>
    </g>
   </g>
   <g id="text_22">
    <!-- 5.0 -->
    <g transform="translate(208.340837 200.142978) scale(0.08 -0.08)">
     <defs>
      <path id="DejaVuSans-35" d="M 691 4666 
L 3169 4666 
L 3169 4134 
L 1269 4134 
L 1269 2991 
Q 1406 3038 1543 3061 
Q 1681 3084 1819 3084 
Q 2600 3084 3056 2656 
Q 3513 2228 3513 1497 
Q 3513 744 3044 326 
Q 2575 -91 1722 -91 
Q 1428 -91 1123 -41 
Q 819 9 494 109 
L 494 744 
Q 775 591 1075 516 
Q 1375 441 1709 441 
Q 2250 441 2565 725 
Q 2881 1009 2881 1497 
Q 2881 1984 2565 2268 
Q 2250 2553 1709 2553 
Q 1456 2553 1204 2497 
Q 953 2441 691 2322 
L 691 4666 
z
" transform="scale(0.015625)"/>
     </defs>
     <use xlink:href="#DejaVuSans-35"/>
     <use xlink:href="#DejaVuSans-2e" transform="translate(63.623047 0)"/>
     <use xlink:href="#DejaVuSans-30" transform="translate(95.410156 0)"/>
    </g>
   </g>
   <g id="text_23">
    <!-- 5.2 -->
    <g transform="translate(216.066185 51.959583) scale(0.08 -0.08)">
     <use xlink:href="#DejaVuSans-35"/>
     <use xlink:href="#DejaVuSans-2e" transform="translate(63.623047 0)"/>
     <use xlink:href="#DejaVuSans-32" transform="translate(95.410156 0)"/>
    </g>
   </g>
   <g id="text_24">
    <!-- 5.4 -->
    <g transform="translate(224.049442 79.273231) scale(0.08 -0.08)">
     <use xlink:href="#DejaVuSans-35"/>
     <use xlink:href="#DejaVuSans-2e" transform="translate(63.623047 0)"/>
     <use xlink:href="#DejaVuSans-34" transform="translate(95.410156 0)"/>
    </g>
   </g>
   <g id="text_25">
    <!-- 5.6 -->
    <g transform="translate(230.946583 193.934391) scale(0.08 -0.08)">
     <use xlink:href="#DejaVuSans-35"/>
     <use xlink:href="#DejaVuSans-2e" transform="translate(63.623047 0)"/>
     <use xlink:href="#DejaVuSans-36" transform="translate(95.410156 0)"/>
    </g>
   </g>
   <g id="text_26">
    <!-- 5.8 -->
    <g transform="translate(235.563512 224.635685) scale(0.08 -0.08)">
     <use xlink:href="#DejaVuSans-35"/>
     <use xlink:href="#DejaVuSans-2e" transform="translate(63.623047 0)"/>
     <use xlink:href="#DejaVuSans-38" transform="translate(95.410156 0)"/>
    </g>
   </g>
   <g id="text_27">
    <!-- 5 -->
    <g transform="translate(215.973337 200.142978) scale(0.08 -0.08)">
     <use xlink:href="#DejaVuSans-35"/>
    </g>
   </g>
   <g id="text_28">
    <!-- 6.0 -->
    <g transform="translate(243.533179 249.822952) scale(0.08 -0.08)">
     <use xlink:href="#DejaVuSans-36"/>
     <use xlink:href="#DejaVuSans-2e" transform="translate(63.623047 0)"/>
     <use xlink:href="#DejaVuSans-30" transform="translate(95.410156 0)"/>
    </g>
   </g>
   <g id="text_29">
    <!-- 6.6 -->
    <g transform="translate(263.370395 273.743946) scale(0.08 -0.08)">
     <use xlink:href="#DejaVuSans-36"/>
     <use xlink:href="#DejaVuSans-2e" transform="translate(63.623047 0)"/>
     <use xlink:href="#DejaVuSans-36" transform="translate(95.410156 0)"/>
    </g>
   </g>
   <g id="legend_1">
    <g id="patch_7">
     <path d="M 288.66375 78.82825 
L 407.72 78.82825 
Q 409.72 78.82825 409.72 76.82825 
L 409.72 48.472 
Q 409.72 46.472 407.72 46.472 
L 288.66375 46.472 
Q 286.66375 46.472 286.66375 48.472 
L 286.66375 76.82825 
Q 286.66375 78.82825 288.66375 78.82825 
z
" style="fill: #ffffff; opacity: 0.8; stroke: #cccccc; stroke-linejoin: miter"/>
    </g>
    <g id="line2d_27">
     <path d="M 290.66375 54.570437 
L 300.66375 54.570437 
L 310.66375 54.570437 
" style="fill: none; stroke: #ff7f0e; stroke-width: 1.5; stroke-linecap: square"/>
    </g>
    <g id="text_30">
     <!-- Theoretical curve -->
     <g transform="translate(318.66375 58.070437) scale(0.1 -0.1)">
      <defs>
       <path id="DejaVuSans-54" d="M -19 4666 
L 3928 4666 
L 3928 4134 
L 2272 4134 
L 2272 0 
L 1638 0 
L 1638 4134 
L -19 4134 
L -19 4666 
z
" transform="scale(0.015625)"/>
       <path id="DejaVuSans-68" d="M 3513 2113 
L 3513 0 
L 2938 0 
L 2938 2094 
Q 2938 2591 2744 2837 
Q 2550 3084 2163 3084 
Q 1697 3084 1428 2787 
Q 1159 2491 1159 1978 
L 1159 0 
L 581 0 
L 581 4863 
L 1159 4863 
L 1159 2956 
Q 1366 3272 1645 3428 
Q 1925 3584 2291 3584 
Q 2894 3584 3203 3211 
Q 3513 2838 3513 2113 
z
" transform="scale(0.015625)"/>
       <path id="DejaVuSans-76" d="M 191 3500 
L 800 3500 
L 1894 563 
L 2988 3500 
L 3597 3500 
L 2284 0 
L 1503 0 
L 191 3500 
z
" transform="scale(0.015625)"/>
      </defs>
      <use xlink:href="#DejaVuSans-54"/>
      <use xlink:href="#DejaVuSans-68" transform="translate(61.083984 0)"/>
      <use xlink:href="#DejaVuSans-65" transform="translate(124.462891 0)"/>
      <use xlink:href="#DejaVuSans-6f" transform="translate(185.986328 0)"/>
      <use xlink:href="#DejaVuSans-72" transform="translate(247.167969 0)"/>
      <use xlink:href="#DejaVuSans-65" transform="translate(286.03125 0)"/>
      <use xlink:href="#DejaVuSans-74" transform="translate(347.554688 0)"/>
      <use xlink:href="#DejaVuSans-69" transform="translate(386.763672 0)"/>
      <use xlink:href="#DejaVuSans-63" transform="translate(414.546875 0)"/>
      <use xlink:href="#DejaVuSans-61" transform="translate(469.527344 0)"/>
      <use xlink:href="#DejaVuSans-6c" transform="translate(530.806641 0)"/>
      <use xlink:href="#DejaVuSans-20" transform="translate(558.589844 0)"/>
      <use xlink:href="#DejaVuSans-63" transform="translate(590.376953 0)"/>
      <use xlink:href="#DejaVuSans-75" transform="translate(645.357422 0)"/>
      <use xlink:href="#DejaVuSans-72" transform="translate(708.736328 0)"/>
      <use xlink:href="#DejaVuSans-76" transform="translate(749.849609 0)"/>
      <use xlink:href="#DejaVuSans-65" transform="translate(809.029297 0)"/>
     </g>
    </g>
    <g id="LineCollection_3">
     <path d="M 295.66375 69.248562 
L 305.66375 69.248562 
" style="fill: none; stroke: #1f77b4; stroke-width: 1.5"/>
    </g>
    <g id="LineCollection_4">
     <path d="M 300.66375 74.248562 
L 300.66375 64.248562 
" style="fill: none; stroke: #1f77b4; stroke-width: 1.5"/>
    </g>
    <g id="line2d_28"/>
    <g id="line2d_29">
     <g>
      <use xlink:href="#m491a068cd8" x="300.66375" y="69.248562" style="fill: #1f77b4; stroke: #1f77b4"/>
     </g>
    </g>
    <g id="text_31">
     <!-- Results -->
     <g transform="translate(318.66375 72.748562) scale(0.1 -0.1)">
      <defs>
       <path id="DejaVuSans-52" d="M 2841 2188 
Q 3044 2119 3236 1894 
Q 3428 1669 3622 1275 
L 4263 0 
L 3584 0 
L 2988 1197 
Q 2756 1666 2539 1819 
Q 2322 1972 1947 1972 
L 1259 1972 
L 1259 0 
L 628 0 
L 628 4666 
L 2053 4666 
Q 2853 4666 3247 4331 
Q 3641 3997 3641 3322 
Q 3641 2881 3436 2590 
Q 3231 2300 2841 2188 
z
M 1259 4147 
L 1259 2491 
L 2053 2491 
Q 2509 2491 2742 2702 
Q 2975 2913 2975 3322 
Q 2975 3731 2742 3939 
Q 2509 4147 2053 4147 
L 1259 4147 
z
" transform="scale(0.015625)"/>
      </defs>
      <use xlink:href="#DejaVuSans-52"/>
      <use xlink:href="#DejaVuSans-65" transform="translate(64.982422 0)"/>
      <use xlink:href="#DejaVuSans-73" transform="translate(126.505859 0)"/>
      <use xlink:href="#DejaVuSans-75" transform="translate(178.605469 0)"/>
      <use xlink:href="#DejaVuSans-6c" transform="translate(241.984375 0)"/>
      <use xlink:href="#DejaVuSans-74" transform="translate(269.767578 0)"/>
      <use xlink:href="#DejaVuSans-73" transform="translate(308.976562 0)"/>
     </g>
    </g>
   </g>
  </g>
 </g>
 <defs>
  <clipPath id="p94311c2ac4">
   <rect x="57.6" y="41.472" width="357.12" height="266.112"/>
  </clipPath>
 </defs>
</svg>
